<svg xmlns="http://www.w3.org/2000/svg" width="120" height="90" viewBox="0 0 120 90">
  <path id="Icon_awesome-image" data-name="Icon awesome-image" d="M108.75,94.5H11.25A11.25,11.25,0,0,1,0,83.25V15.75A11.25,11.25,0,0,1,11.25,4.5h97.5A11.25,11.25,0,0,1,120,15.75v67.5A11.25,11.25,0,0,1,108.75,94.5ZM26.25,17.625A13.125,13.125,0,1,0,39.375,30.75,13.125,13.125,0,0,0,26.25,17.625ZM15,79.5h90V53.25L84.489,32.739a2.813,2.813,0,0,0-3.978,0L48.75,64.5,35.739,51.489a2.813,2.813,0,0,0-3.978,0L15,68.25Z" transform="translate(0 -4.5)" fill="#5c6470" opacity="0.5"/>
</svg>
