<svg xmlns="http://www.w3.org/2000/svg" xmlns:xlink="http://www.w3.org/1999/xlink" width="362" height="683" viewBox="0 0 362 683">
  <defs>
    <clipPath id="clip-path">
      <rect id="Rectangle_317" data-name="Rectangle 317" width="362" height="683" transform="translate(1168 1477)" fill="#fff" stroke="#707070" stroke-width="1"/>
    </clipPath>
  </defs>
  <g id="Mask_Group_55" data-name="Mask Group 55" transform="translate(-1168 -1477)" clip-path="url(#clip-path)">
    <g id="Group_494" data-name="Group 494" transform="translate(1128.42 1431.081)">
      <g id="Group_493" data-name="Group 493" transform="translate(0)">
        <path id="Path_1656" data-name="Path 1656" d="M272.218,263.6a7.106,7.106,0,0,1,1.147.193,15.134,15.134,0,0,1,2.734.953,13.189,13.189,0,0,1,3.381,2.179,22.294,22.294,0,0,1,1.73,1.616c.6.607,1.062,1.134,1.73,1.922a32.577,32.577,0,0,1,2.6,4.16,22.663,22.663,0,0,1,1.744,4.353,26.249,26.249,0,0,1,.776,3.537,12.28,12.28,0,0,1,.147,1.456,8.039,8.039,0,0,1-1.112-.432,17.027,17.027,0,0,1-2.545-1.447,30.6,30.6,0,0,1-3.085-2.547,28.718,28.718,0,0,1-3.12-3.534c-.357-.454-.929-1.165-1.337-1.781a22.54,22.54,0,0,1-1.244-1.971c-.736-1.349-1.469-2.71-2.03-3.967a26.508,26.508,0,0,1-1.18-3.283A14.07,14.07,0,0,1,272.218,263.6Z" transform="translate(-272.218 490.233)" fill="#2e3238"/>
        <path id="Path_1657" data-name="Path 1657" d="M272.218,254.18s.879.288,2.345.929c.733.328,1.63.705,2.62,1.22a21.4,21.4,0,0,1,3.289,1.9c1.19.772,2.488,1.618,3.828,2.593s2.631,2.176,4,3.387a40.3,40.3,0,0,1,4.057,4.01c1.326,1.456,2.631,2.995,3.946,4.527,1.315,1.821,2.38,3.292,3.524,4.981a48.543,48.543,0,0,1,3.142,5.156c.965,1.769,1.927,3.461,2.7,5.147s1.415,3.335,2.016,4.846a34.907,34.907,0,0,1,1.5,4.212c.411,1.275.711,2.428.965,3.363.508,1.879.729,2.986.729,2.986s-.7-.757-1.8-2.146c-.547-.693-1.223-1.527-1.927-2.526s-1.559-2.066-2.456-3.249-1.866-2.452-2.838-3.835c-.983-1.367-2.087-2.679-3.142-4.141-.529-.724-1.062-1.462-1.6-2.207s-1.19-1.49-1.769-2.265c-1.18-1.477-2.47-3.225-3.51-4.62-1.215-1.471-2.431-2.937-3.589-4.442-1.144-1.527-2.348-2.918-3.5-4.295-1.14-1.4-2.241-2.759-3.285-4.049-1.079-1.22-2.066-2.449-2.985-3.593s-1.766-2.226-2.57-3.139-1.455-1.772-2.005-2.464C272.8,255.06,272.218,254.18,272.218,254.18Z" transform="translate(-272.218 470.771)" fill="#2e3238"/>
        <path id="Path_1658" data-name="Path 1658" d="M272.218,245.726s1.326.411,3.589,1.278a43.153,43.153,0,0,1,4.05,1.75,50.325,50.325,0,0,1,5.154,2.688,64.548,64.548,0,0,1,5.923,3.734c2.041,1.465,4.2,3.041,6.327,4.886a78.8,78.8,0,0,1,6.362,6.051c2.155,2.1,4.075,4.619,6.109,6.98,1.937,2.7,3.71,4.862,5.451,7.734,1.8,2.676,3.335,5.453,4.786,8.151s2.685,5.459,3.832,8.065c1.115,2.636,2.145,5.138,2.931,7.541.861,2.357,1.559,4.567,2.1,6.563.59,1.971,1.051,3.709,1.376,5.168.683,2.9,1,4.58,1,4.58s-.822-1.395-2.137-3.884c-.661-1.232-1.466-2.728-2.388-4.445-.9-1.729-1.977-3.617-3.11-5.686-1.112-2.1-2.456-4.233-3.75-6.581-1.362-2.281-2.838-4.65-4.371-7.069q-1.169-1.793-2.373-3.639c-.8-1.22-1.669-2.354-2.488-3.568-1.562-2.354-3.649-4.923-5.337-7.225-1.894-2.253-3.682-4.653-5.63-6.762-.969-1.061-1.873-2.192-2.838-3.216s-1.916-2.029-2.856-3.025c-1.9-1.953-3.753-3.838-5.547-5.573-1.844-1.646-3.517-3.363-5.161-4.776-1.63-1.444-3.11-2.814-4.457-3.954-1.347-1.177-2.523-2.2-3.492-3.047C273.308,246.768,272.218,245.726,272.218,245.726Z" transform="translate(-272.218 453.311)" fill="#2e3238"/>
        <path id="Path_1659" data-name="Path 1659" d="M272.218,237.844s1.766.509,4.811,1.554c1.523.5,3.36,1.2,5.455,2.091l3.346,1.4c1.155.567,2.37,1.165,3.639,1.784a88.6,88.6,0,0,1,8.075,4.5c1.433.806,2.813,1.882,4.279,2.851a48.492,48.492,0,0,1,4.371,3.243q2.166,1.8,4.4,3.648c1.476,1.257,2.87,2.71,4.3,4.132l2.145,2.149c.7.745,1.358,1.557,2.045,2.336q2.075,2.414,4.164,4.843l3.628,5.03c.6.846,1.215,1.64,1.791,2.538l1.708,2.783c1.119,1.855,2.291,3.666,3.278,5.551q1.453,2.842,2.863,5.6c.969,1.812,1.759,3.718,2.548,5.57.758,1.867,1.6,3.626,2.234,5.453,1.34,3.614,2.606,7.02,3.532,10.287q.735,2.428,1.4,4.641.579,2.248,1.094,4.255c.693,2.664,1.244,5,1.641,6.955.822,3.89,1.219,6.134,1.219,6.134s-.915-2-2.391-5.536c-.743-1.756-1.655-3.887-2.7-6.333-1.008-2.458-2.234-5.162-3.546-8.114-1.262-2.986-2.856-6.039-4.382-9.362-.747-1.674-1.694-3.246-2.563-4.932-.922-1.637-1.7-3.449-2.727-5.076l-2.974-5.092c-1.026-1.686-2.148-3.246-3.2-4.926l-1.612-2.486c-.572-.822-1.212-1.643-1.809-2.474l-3.671-4.984-3.692-4.454c-.633-.751-1.24-1.536-1.891-2.256l-1.991-2.078c-1.344-1.346-2.595-2.82-3.925-4.126q-2.027-1.917-4-3.786c-1.279-1.306-2.695-2.308-3.982-3.482-1.323-1.1-2.556-2.308-3.875-3.265-2.609-1.943-5-3.979-7.345-5.582-2.316-1.668-4.436-3.234-6.362-4.515-1.916-1.3-3.571-2.523-4.976-3.43C273.78,239,272.218,237.844,272.218,237.844Z" transform="translate(-272.218 437.031)" fill="#2e3238"/>
        <path id="Path_1660" data-name="Path 1660" d="M272.218,230.213s2.191.656,6,1.928c1.9.628,4.2,1.435,6.824,2.452q1.973.754,4.189,1.6l4.593,2.011c3.224,1.318,6.62,3.133,10.223,5.055,1.823.889,3.581,2.155,5.447,3.262a54.811,54.811,0,0,1,5.576,3.752q2.761,2.12,5.608,4.3c1.88,1.493,3.642,3.28,5.465,4.984l2.734,2.6c.883.913,1.712,1.925,2.57,2.888q2.563,2.929,5.136,5.876,2.295,3.246,4.579,6.489c.736,1.07,1.5,2.075,2.212,3.2l2.077,3.528c1.358,2.351,2.8,4.641,3.968,7.047q1.716,3.623,3.378,7.145c1.158,2.311,2.034,4.757,2.949,7.105.869,2.376,1.859,4.623,2.559,6.943,1.5,4.589,2.935,8.92,3.968,13.031q.826,3.058,1.576,5.852.66,2.814,1.251,5.334c.8,3.341,1.43,6.278,1.923,8.7,1,4.849,1.508,7.642,1.508,7.642s-1.011-2.563-2.691-7.09c-.829-2.262-1.844-5.006-3-8.154-1.122-3.166-2.474-6.679-3.921-10.5-1.387-3.865-3.156-7.863-4.861-12.172-.822-2.183-1.92-4.227-2.9-6.422-1.055-2.137-1.919-4.482-3.131-6.587q-1.71-3.246-3.474-6.59c-1.212-2.176-2.577-4.175-3.825-6.336l-1.927-3.2c-.7-1.054-1.5-2.081-2.241-3.127l-4.45-6.131q-2.386-2.819-4.768-5.628c-.8-.926-1.566-1.9-2.391-2.783l-2.545-2.5c-1.719-1.618-3.324-3.409-5.04-4.948q-2.627-2.244-5.172-4.426c-1.659-1.542-3.492-2.652-5.169-3.994-1.723-1.248-3.331-2.645-5.044-3.691-3.385-2.17-6.516-4.429-9.554-6.192-3-1.845-5.758-3.565-8.243-4.99l-6.4-3.829C274.23,231.5,272.218,230.213,272.218,230.213Z" transform="translate(-272.218 421.271)" fill="#2e3238"/>
        <path id="Path_1661" data-name="Path 1661" d="M272.218,222.546s2.591.944,7.12,2.6c4.511,1.689,10.988,3.948,18.694,7.118,3.846,1.6,8.032,3.338,12.364,5.573a113.976,113.976,0,0,1,13.451,7.715,104.836,104.836,0,0,1,13.568,10.554,126.841,126.841,0,0,1,12.593,13.543c1.952,2.731,3.717,4.88,5.526,7.761.89,1.37,1.805,2.722,2.659,4.1q1.228,2.1,2.448,4.178a143.824,143.824,0,0,1,8.282,17.292c1.233,2.878,2.27,5.8,3.31,8.653.94,2.9,1.934,5.7,2.749,8.485,1.755,5.521,3.117,10.851,4.375,15.756,2.488,9.815,4.257,18.07,5.58,23.824,1.3,5.769,2.037,9.07,2.037,9.07l-.854-2.216c-.543-1.45-1.4-3.55-2.363-6.293-1.987-5.45-4.64-13.349-7.8-22.754-1.619-4.678-3.349-9.751-5.308-15s-4.161-10.677-6.609-16.121a170.4,170.4,0,0,0-8.321-16.087q-1.169-1.945-2.352-3.905c-.808-1.269-1.651-2.471-2.477-3.718-1.537-2.443-3.682-5.015-5.351-7.332A121.822,121.822,0,0,0,333.8,262.371a125.85,125.85,0,0,0-12.625-10.606c-4.275-3.12-8.521-5.95-12.65-8.427-4.118-2.492-8.1-4.7-11.771-6.762-7.381-4.028-13.576-7.4-17.858-9.938-2.159-1.217-3.8-2.314-4.94-3.007Z" transform="translate(-272.218 405.436)" fill="#2e3238"/>
        <path id="Path_1662" data-name="Path 1662" d="M272.218,214.55l2.123,1c1.387.647,3.417,1.637,6.012,2.762,2.577,1.186,5.758,2.468,9.379,4.006,3.653,1.465,7.767,3.12,12.26,4.923,4.5,1.827,9.39,3.755,14.5,6.161a141.466,141.466,0,0,1,15.917,8.329,111.448,111.448,0,0,1,16.146,11.7q1.941,1.77,3.9,3.547c1.273,1.229,2.5,2.56,3.757,3.841l1.88,1.943,1.784,2.088,3.632,4.3,3.2,4.4,1.6,2.21,1.548,2.428c1.022,1.622,2.084,3.219,3.056,4.852q1.4,2.492,2.781,4.966a159.211,159.211,0,0,1,9.19,20.572c2.624,6.882,4.707,13.754,6.541,20.283,1.884,6.514,3.4,12.746,4.829,18.478s2.713,10.971,3.864,15.621c1.208,4.613,2.213,8.672,3.146,11.961.883,3.317,1.655,5.885,2.163,7.651s.783,2.71.783,2.71-.379-.877-1.094-2.523c-.7-1.658-1.83-4.034-3.013-7.213-1.255-3.142-2.684-7-4.246-11.489-1.544-4.485-3.256-9.567-5.015-15.14-1.805-5.545-3.707-11.578-5.816-17.853s-4.468-12.782-7.127-19.321a179.794,179.794,0,0,0-9.215-19.281q-1.33-2.322-2.67-4.653c-.922-1.511-1.9-2.934-2.845-4.411l-1.43-2.2-1.608-2.18-3.238-4.359a121.943,121.943,0,0,0-13.826-14.839,127.69,127.69,0,0,0-15.131-11.746c-5.133-3.39-10.23-6.419-15.163-9.089s-9.658-5.113-14.008-7.406c-4.379-2.241-8.364-4.423-11.885-6.388-3.521-1.986-6.552-3.816-9.025-5.41-2.5-1.514-4.347-2.946-5.655-3.832Z" transform="translate(-272.218 388.921)" fill="#2e3238"/>
        <path id="Path_1663" data-name="Path 1663" d="M272.218,205.892l2.327,1.5c1.526.947,3.717,2.514,6.616,4.1,1.444.809,3.01,1.772,4.768,2.694,1.759.9,3.664,1.888,5.7,2.94,4.111,1.971,8.779,4.071,13.908,6.281,5.14,2.173,10.738,4.42,16.653,7.026a192.051,192.051,0,0,1,18.476,8.939,120.351,120.351,0,0,1,18.88,12.743q2.273,1.972,4.561,3.954c1.494,1.373,2.917,2.894,4.382,4.341l2.191,2.2,2.062,2.391,4.2,4.932,3.675,5.092,1.83,2.563,1.755,2.826c1.155,1.891,2.373,3.743,3.457,5.662q1.56,2.915,3.1,5.806a178.687,178.687,0,0,1,10,24.06c2.792,8.037,5.015,16.007,7.016,23.545,2.045,7.532,3.814,14.665,5.515,21.221,1.73,6.532,3.378,12.479,4.926,17.718.822,2.593,1.594,5.024,2.305,7.265s1.483,4.242,2.12,6.088c1.251,3.7,2.463,6.465,3.21,8.414.768,1.934,1.18,2.967,1.18,2.967s-.515-.953-1.476-2.741c-.922-1.818-2.477-4.344-4.028-7.893-.794-1.756-1.734-3.672-2.656-5.821-.886-2.174-1.844-4.527-2.87-7.041q-1.426-3.839-3.024-8.157-1.469-4.373-3.092-9.178c-2.087-6.416-4.261-13.414-6.538-20.752s-4.818-14.99-7.66-22.693a196.682,196.682,0,0,0-10.03-22.711q-1.491-2.722-2.981-5.459c-1.026-1.775-2.145-3.424-3.21-5.156l-1.619-2.569-1.841-2.526-3.71-5.055-3.76-4.472-1.927-2.284-2.048-2.1c-1.373-1.379-2.7-2.835-4.1-4.154q-2.15-1.9-4.282-3.792a133.516,133.516,0,0,0-17.826-12.792c-6.044-3.62-12.039-6.851-17.808-9.763s-11.252-5.674-16.289-8.332c-2.509-1.361-4.929-2.648-7.2-3.939l-6.405-3.847c-1.97-1.309-3.818-2.529-5.526-3.657-1.687-1.174-3.2-2.376-4.575-3.393-2.8-1.974-4.754-3.945-6.187-5.122C272.965,206.545,272.218,205.892,272.218,205.892Z" transform="translate(-272.218 371.04)" fill="#2e3238"/>
        <path id="Path_1664" data-name="Path 1664" d="M272.218,196.142s.847.769,2.427,2.21c.793.723,1.766,1.615,2.913,2.661l1.848,1.686,2.184,1.707c1.533,1.192,3.231,2.517,5.076,3.957q2.879,1.931,6.216,4.169c2.22,1.471,4.7,2.765,7.235,4.27,2.566,1.45,5.337,2.786,8.182,4.285,5.783,2.762,12.106,5.533,18.858,8.439,6.734,2.9,13.919,5.934,21.207,9.7a133.94,133.94,0,0,1,21.9,13.717c7.192,5.5,13.815,12.457,20.02,19.912l4.282,5.98c.69.987,1.4,1.925,2.077,2.955l1.977,3.268c1.29,2.195,2.684,4.325,3.86,6.563q1.726,3.384,3.439,6.744a206.822,206.822,0,0,1,10.766,27.9c2.956,9.291,5.344,18.438,7.617,27.027s4.457,16.654,6.62,24.026c1.176,3.623,2.223,7.158,3.364,10.422,1.183,3.237,2.2,6.391,3.349,9.221q1.753,4.244,3.271,7.918c1.133,2.36,2.173,4.531,3.117,6.489q.708,1.476,1.34,2.786c.468.831.9,1.615,1.312,2.342l2.08,3.7,1.737,3.1-2-2.817c-.658-.92-1.462-2.054-2.413-3.39q-.713-1.007-1.53-2.167-.735-1.237-1.555-2.627c-1.1-1.864-2.32-3.927-3.639-6.174q-1.78-3.554-3.842-7.673c-1.351-2.759-2.574-5.843-3.986-9.024-1.365-3.212-2.566-6.719-3.953-10.312-1.258-3.651-2.584-7.461-3.878-11.425q-1.855-5.977-3.832-12.338c-2.581-8.479-5.294-17.353-8.318-26.344a223.716,223.716,0,0,0-10.82-26.534q-1.641-3.163-3.3-6.351c-1.122-2.094-2.4-3.979-3.592-5.99l-1.812-2.979c-.654-.984-1.394-1.943-2.087-2.909l-4.125-5.692a122.111,122.111,0,0,0-18.773-19.005,147.484,147.484,0,0,0-20.821-13.791c-7.059-3.853-14.015-7.32-20.674-10.6-3.321-1.634-6.566-3.268-9.679-4.886-3.113-1.649-6.1-3.335-8.968-4.941-2.82-1.766-5.573-3.3-8.092-5.036-2.5-1.8-4.918-3.357-7.085-5.076-2.148-1.744-4.161-3.381-6.019-4.892l-4.858-4.647q-1.094-1.053-2.07-1.986c-.6-.69-1.165-1.336-1.687-1.937l-2.656-3.068Z" transform="translate(-272.218 350.902)" fill="#2e3238"/>
        <path id="Path_1665" data-name="Path 1665" d="M272.218,184.661s.808,1.116,2.32,3.209c1.451,2.149,3.86,5.049,6.8,8.635a140.03,140.03,0,0,0,11.728,11.768,81.818,81.818,0,0,0,7.689,6.2c2.7,2.213,5.8,3.966,8.911,6.063a200.323,200.323,0,0,0,21.114,10.965c7.635,3.531,15.86,6.817,24.274,10.885,8.393,4.089,17.132,8.522,25.439,14.692,2.095,1.478,4.078,3.249,6.137,4.871a65.184,65.184,0,0,1,5.941,5.367,70.7,70.7,0,0,1,5.7,5.852l5.537,6.422a157.688,157.688,0,0,1,17.465,29.455c4.854,10.575,8.328,21.718,11.538,32.41,3.188,10.726,5.773,21.2,8.543,30.932,2.7,9.778,5.6,18.778,8.6,26.9,1.644,3.954,3.02,7.918,4.757,11.351,1.648,3.507,3.135,6.922,4.879,9.818a166.038,166.038,0,0,0,9.2,14.9c2.852,3.8,5.122,6.857,6.795,8.7,1.644,1.925,2.516,2.952,2.516,2.952s-.954-.91-2.742-2.621a104.472,104.472,0,0,1-7.463-7.9,136.16,136.16,0,0,1-10.255-14.19,150.054,150.054,0,0,1-10.923-20.887c-.936-1.977-1.676-4.126-2.548-6.244-.822-2.149-1.773-4.292-2.527-6.563-1.594-4.512-3.213-9.205-4.711-14.079-3.1-9.708-6.048-20.053-9.329-30.509A268.457,268.457,0,0,0,416,312.958a148.5,148.5,0,0,0-16.853-27.925l-4.99-5.843a64.417,64.417,0,0,0-5.347-5.567,60.633,60.633,0,0,0-5.58-5.131c-1.944-1.554-3.807-3.252-5.8-4.684A169.881,169.881,0,0,0,353.05,249c-8.207-4.175-16.321-7.942-23.945-11.887-3.825-1.913-7.506-3.963-11.045-6-1.787-.963-3.467-2.173-5.154-3.219-1.666-1.113-3.346-2.054-4.9-3.249A113.977,113.977,0,0,1,291.6,210.707c-4.725-4.58-8.118-9.31-11.106-13.025q-4.268-6.046-6.219-9.533Z" transform="translate(-272.218 327.19)" fill="#2e3238"/>
        <path id="Path_1666" data-name="Path 1666" d="M272.218,170.022s.7,1.53,2.012,4.4c.658,1.438,1.466,3.206,2.416,5.288,1.047,1.989,2.252,4.279,3.6,6.842.686,1.263,1.337,2.655,2.159,3.994s1.709,2.719,2.617,4.166,1.855,2.943,2.838,4.5c1.044,1.487,2.209,2.937,3.367,4.482l3.6,4.739c1.237,1.425,2.738,3.007,4.15,4.57a109.692,109.692,0,0,0,9.311,9.178,135.547,135.547,0,0,0,23.3,15.921c8.7,4.672,18.19,8.709,28.031,13.178s20.117,9.242,30,15.937a121.981,121.981,0,0,1,27.516,25.369l5.7,7.988c1.852,2.673,3.546,5.8,5.312,8.675a164.376,164.376,0,0,1,8.9,18.4c5.265,12.6,8.993,25.709,12.51,38.228,3.506,12.543,6.681,24.63,10.344,35.714a200.918,200.918,0,0,0,12.5,29.7,130.828,130.828,0,0,0,7.2,11.857c1.2,1.781,2.431,3.66,3.535,5.23q1.941,2.4,3.764,4.647c1.226,1.49,2.381,2.992,3.549,4.328q1.823,1.858,3.514,3.587c1.133,1.156,2.22,2.268,3.253,3.323s2.148,1.879,3.142,2.759c2.013,1.723,3.81,3.255,5.372,4.589,1.626,1.211,3.013,2.241,4.139,3.078l3.453,2.563-3.614-2.176q-1.775-1.071-4.353-2.624c-1.676-1.116-3.546-2.55-5.665-4.107-1.044-.806-2.2-1.557-3.317-2.529q-1.668-1.494-3.489-3.121-1.828-1.641-3.8-3.406c-1.251-1.26-2.466-2.651-3.767-4.037l-3.989-4.331c-1.4-1.723-2.616-3.387-3.989-5.162a117.763,117.763,0,0,1-7.889-11.762,183.047,183.047,0,0,1-13.869-29.958c-4.053-11.2-7.628-23.312-11.26-35.714a357.554,357.554,0,0,0-12.671-37.014,155.517,155.517,0,0,0-8.5-17.335c-1.666-2.652-3.113-5.38-4.947-8l-5.54-7.688a116.137,116.137,0,0,0-25.914-24.2,217.939,217.939,0,0,0-29.042-16.148c-9.737-4.629-19.241-9.193-28.03-14.349a130.258,130.258,0,0,1-23.52-17.678,105.3,105.3,0,0,1-9.226-10.051c-1.373-1.726-2.659-3.259-4-5.018q-1.775-2.649-3.446-5.144c-1.1-1.674-2.209-3.246-3.2-4.84q-1.373-2.5-2.656-4.816t-2.438-4.426c-.761-1.422-1.355-2.9-1.987-4.233-1.226-2.7-2.352-5.085-3.228-7.225-.808-2.176-1.494-4.028-2.055-5.53C272.815,171.622,272.218,170.022,272.218,170.022Z" transform="translate(-272.218 296.956)" fill="#2e3238"/>
        <path id="Path_1667" data-name="Path 1667" d="M272.218,150.376s2.516,7.905,6.927,21.739c2.3,6.845,5.061,15.192,9,24.213a153.809,153.809,0,0,0,15.47,28.17q2.541,3.43,5.183,7,2.906,3.265,5.919,6.646a115.524,115.524,0,0,0,13.336,12.035c9.644,7.482,20.724,13.307,32.445,18.738,11.717,5.45,24.21,10.477,36.359,17.813a122.041,122.041,0,0,1,33.707,29.335l3.478,4.862c1.115,1.606,2.273,3.093,3.356,4.8,2.073,3.559,4.346,7.016,6.219,10.677a185.123,185.123,0,0,1,9.973,22.613c5.766,15.477,9.7,31.4,13.98,46.327s8.839,29.047,14.7,41.339a145.411,145.411,0,0,0,9.487,17.046q2.6,3.77,5.108,7.4l5.59,6.725a63.983,63.983,0,0,0,5.573,5.886,69.855,69.855,0,0,0,5.54,5.22q2.831,2.387,5.515,4.644c1.841,1.4,3.685,2.649,5.444,3.927a181.659,181.659,0,0,0,19,11.471l17.064,8.828-4.582-1.885c-2.992-1.229-7.381-3.01-12.922-5.478A176.449,176.449,0,0,1,523.453,500.2a109.257,109.257,0,0,1-23.434-18.919q-2.836-3.159-5.79-6.443-2.783-3.724-5.676-7.587a142.494,142.494,0,0,1-10.287-17.387c-6.38-12.574-11.463-27.012-15.917-42.05-4.475-15.035-8.722-30.571-14.28-45.459a175.973,175.973,0,0,0-9.594-21.5c-1.78-3.442-3.846-6.5-5.744-9.788-2.112-3.114-4.6-6.416-6.641-9.31a115.979,115.979,0,0,0-31.851-28c-11.681-7.093-23.877-12.494-35.676-18.2-11.8-5.674-23.13-12.163-33-20.286a116.17,116.17,0,0,1-13.686-13.16l-5.848-7.093q-2.627-3.826-5.151-7.5A148.684,148.684,0,0,1,286.062,197.7c-3.614-9.426-6.041-18-8.06-25.019-1.937-7.059-3.335-12.657-4.3-16.464S272.218,150.376,272.218,150.376Z" transform="translate(-272.218 256.38)" fill="#2e3238"/>
        <path id="Path_1668" data-name="Path 1668" d="M272.218,131.906s.947,2.158,2.727,6.195c1.723,4.077,4.168,10.159,6.827,18.132,2.706,7.955,5.608,17.807,9.061,29a319.966,319.966,0,0,0,13.2,36.4A134.211,134.211,0,0,0,327.3,257.769c2.438,3.01,5.144,5.187,7.764,7.774a44.4,44.4,0,0,0,4.171,3.556q2.145,1.71,4.321,3.445c1.487,1.085,3.031,2.069,4.554,3.117,1.541,1.009,3.028,2.158,4.647,3.038,3.192,1.87,6.373,3.841,9.73,5.493,13.247,7.023,27.709,12.4,41.964,20.176a126.7,126.7,0,0,1,39.644,32.86L448,342.707a60.411,60.411,0,0,1,3.828,5.723l3.675,6.149c1.247,2.038,2.191,4.236,3.3,6.342a199.859,199.859,0,0,1,10.873,26.567c6.112,18.156,10.323,36.588,15.838,53.466,1.3,4.276,2.842,8.332,4.311,12.4.693,2.063,1.587,3.963,2.384,5.919.826,1.94,1.6,3.911,2.448,5.8a145.98,145.98,0,0,0,11.617,20.749q1.63,2.322,3.231,4.616l.8,1.143c.136.248.55.687.808,1.021l1.762,2.143c1.18,1.4,2.32,2.9,3.5,4.175l3.532,3.743c1.133,1.281,2.384,2.4,3.607,3.537s2.416,2.284,3.646,3.35c2.527,1.989,4.908,4.16,7.449,5.87a201.461,201.461,0,0,0,28.567,16.826c8.782,4.4,16.514,8.1,22.755,11.547a158.209,158.209,0,0,1,14.226,8.7l4.865,3.479-5.018-3.087c-3.288-1.968-8.2-4.577-14.53-7.633s-14.151-6.293-23.112-10.186-19.084-8.537-29.51-15.593c-2.649-1.649-5.172-3.776-7.839-5.729-1.3-1.051-2.566-2.2-3.867-3.311s-2.62-2.232-3.875-3.547q-1.9-1.913-3.843-3.85c-1.272-1.312-2.391-2.728-3.614-4.1l-1.8-2.088c-.322-.4-.558-.6-.951-1.149l-.862-1.168q-1.721-2.345-3.464-4.721a149.914,149.914,0,0,1-12.56-21.338,224.49,224.49,0,0,1-9.8-24.759c-5.8-17.261-10.369-35.54-16.31-53.138a190.325,190.325,0,0,0-10.5-25.375c-1.051-1.971-1.977-4.114-3.121-5.95l-3.378-5.6a55.418,55.418,0,0,0-3.721-5.521l-3.932-5.456-4.053-4.73a50.324,50.324,0,0,0-4.271-4.678l-4.468-4.377c-1.473-1.49-3.131-2.648-4.682-3.991a127.283,127.283,0,0,0-19.917-13.38c-13.808-7.581-28.156-13.4-41.7-20.786-3.41-1.753-6.691-3.853-9.962-5.849-3.26-2.038-6.373-4.4-9.469-6.643q-2.241-1.88-4.457-3.74a47.845,47.845,0,0,1-4.325-3.887c-2.735-2.817-5.691-5.42-7.992-8.408a136.927,136.927,0,0,1-23.252-38.335c-5.54-13.282-9.186-26.2-12.239-37.6s-5.59-21.384-8-29.446-4.443-14.318-5.994-18.512C273.062,134.131,272.218,131.906,272.218,131.906Z" transform="translate(-272.218 218.233)" fill="#2e3238"/>
        <path id="Path_1669" data-name="Path 1669" d="M272.218,118.289l3.943,5.941a82.238,82.238,0,0,1,4.45,7.437c.819,1.517,1.812,3.075,2.67,4.886s1.777,3.734,2.742,5.766a270.583,270.583,0,0,1,11.613,30.914c3.928,12.243,7.792,26.307,12.843,41.048,5.1,14.671,11.649,30.1,21.429,43.424q1.834,2.483,3.689,5l.393.533.518.589,1.04,1.18,2.091,2.373c1.408,1.53,2.77,3.311,4.25,4.659q2.2,2.074,4.422,4.181a48.447,48.447,0,0,0,4.661,3.973c1.612,1.257,3.185,2.621,4.836,3.838,3.4,2.265,6.716,4.773,10.319,6.753,14.133,8.592,29.961,14.278,45.631,22.417a144.5,144.5,0,0,1,23.055,14.484l5.49,4.475c1.78,1.591,3.485,3.335,5.233,5l2.606,2.529,2.427,2.8,4.947,5.76,4.286,6,2.141,3.007,2.02,3.363c1.326,2.253,2.724,4.469,3.982,6.759l3.514,7a224.5,224.5,0,0,1,11.367,29.375c6.4,19.962,10.852,40.135,17.6,58.14,6.459,18.187,15.413,33.808,25.982,46.179,10.412,12.415,22.54,20.78,34.05,27.275,11.567,6.44,22.6,11.351,32.213,16.366a173.331,173.331,0,0,1,24.259,14.8L623.454,570c1.419,1.091,2.634,2.357,3.828,3.4a69,69,0,0,1,5.841,5.674l4.657,5.027s-1.691-1.628-4.868-4.681a65.816,65.816,0,0,0-6.052-5.22c-1.226-.956-2.484-2.1-3.935-3.1s-2.981-2.084-4.6-3.219a167.025,167.025,0,0,0-24.5-13.365c-9.7-4.445-20.9-8.745-32.774-15-11.828-6.226-24.538-14.407-35.769-27.113-11.177-12.387-21.114-28.71-27.895-47.461-7.12-18.573-11.971-38.8-18.226-58.251a213.953,213.953,0,0,0-11.009-28.177L464.8,371.9c-1.176-2.121-2.452-4.108-3.667-6.177l-1.845-3.078-2.141-2.989-4.3-5.981-4.45-5.187-2.281-2.658-2.448-2.391c-1.644-1.579-3.238-3.237-4.922-4.748l-5.187-4.27a139.224,139.224,0,0,0-22.111-14.03c-15.259-7.979-31.137-14.143-45.717-23.223-3.689-2.1-7.149-4.779-10.652-7.2-1.712-1.306-3.36-2.743-5.018-4.114a53.464,53.464,0,0,1-4.847-4.371q-2.338-2.34-4.654-4.659c-1.566-1.527-2.809-3.255-4.214-4.862l-2.045-2.437-1.015-1.217-.508-.6c-.315-.4-.358-.5-.551-.763q-1.887-2.69-3.757-5.346c-9.937-14.26-16.374-30.473-21.257-45.542-4.911-15.131-8.278-29.394-11.771-41.762a273.088,273.088,0,0,0-10.491-31.211q-1.335-3.1-2.531-5.861c-.779-1.851-1.68-3.445-2.427-5.006a84.4,84.4,0,0,0-4.1-7.715C273.5,120.45,272.218,118.289,272.218,118.289Z" transform="translate(-272.218 190.109)" fill="#2e3238"/>
        <path id="Path_1670" data-name="Path 1670" d="M272.218,107.334l1.3,1.33c.844.9,2.159,2.137,3.75,3.933,1.558,1.821,3.624,4,5.7,6.9a96.551,96.551,0,0,1,7.067,10.1c5.126,7.847,10.351,18.368,15.156,31.171,2.434,6.382,4.733,13.334,7.038,20.7s4.514,15.189,6.97,23.241c1.262,4,2.466,8.142,3.9,12.215q1.051,3.081,2.116,6.21,1.169,3.062,2.356,6.177l1.194,3.124,1.34,3.05q1.346,3.058,2.713,6.161c.99,2,2.048,3.976,3.078,5.987a61.5,61.5,0,0,0,3.288,5.907q1.769,2.869,3.553,5.775c1.215,1.907,2.62,3.632,3.932,5.475l2.009,2.734c.307.408.736,1.027.944,1.26l1.13,1.287q2.268,2.575,4.557,5.18a60.694,60.694,0,0,0,4.729,4.705c1.633,1.465,3.1,3.16,4.89,4.472l5.19,4.193c1.755,1.37,3.628,2.532,5.444,3.816,14.709,10.073,31.573,16.249,48.365,24.593a169.249,169.249,0,0,1,24.806,14.931,126.326,126.326,0,0,1,11.52,10.014,60.455,60.455,0,0,1,5.415,5.643l5.279,6.146a159.313,159.313,0,0,1,16.914,28.045,267.124,267.124,0,0,1,11.717,31.61c6.559,21.4,11.4,42.884,19.3,61.622a150.91,150.91,0,0,0,13.544,25.875q1.989,2.851,3.967,5.665l.979,1.41c.172.267.683.831,1,1.232l2.2,2.621c1.469,1.7,2.885,3.559,4.379,5.1l4.479,4.463a48.038,48.038,0,0,0,4.611,4.172c1.58,1.312,3.128,2.661,4.7,3.921q2.44,1.743,4.836,3.461l2.395,1.707,2.452,1.52q2.445,1.513,4.843,3,2.461,1.361,4.875,2.695c3.2,1.827,6.445,3.363,9.586,4.972,6.32,3.127,12.457,5.956,18.24,8.88,5.78,2.94,11.238,5.87,16.246,8.969a118.717,118.717,0,0,1,24.453,19.3,89.889,89.889,0,0,1,7.939,9.027c2.291,2.658,3.971,5.251,5.4,7.244,1.412,2.029,2.384,3.715,3.088,4.788.69,1.091,1.047,1.652,1.047,1.652s-.379-.54-1.115-1.579c-.747-1.024-1.78-2.63-3.271-4.558-1.523-1.9-3.292-4.362-5.672-6.848a101.651,101.651,0,0,0-8.171-8.482,113.928,113.928,0,0,0-24.681-17.819c-10.069-5.625-21.9-10.431-34.758-16.326-3.2-1.53-6.5-2.973-9.794-4.736l-5.011-2.587q-2.488-1.453-5.019-2.927-1.271-.74-2.548-1.484l-2.5-1.68q-2.515-1.7-5.065-3.427c-1.651-1.254-3.288-2.6-4.954-3.917a50.553,50.553,0,0,1-4.929-4.239q-2.423-2.308-4.876-4.644c-1.6-1.585-2.992-3.335-4.514-5.015l-2.245-2.55c-.407-.484-.683-.733-1.2-1.4l-1.062-1.444q-2.118-2.892-4.275-5.821A148.176,148.176,0,0,1,513.959,478.4c-8.375-19.456-13.636-41.186-20.077-62.128A258.284,258.284,0,0,0,482.5,385.854,150.707,150.707,0,0,0,466.273,359.2l-4.765-5.548a55.293,55.293,0,0,0-5.09-5.343,119.638,119.638,0,0,0-10.863-9.533,164.166,164.166,0,0,0-23.866-14.5c-16.435-8.221-33.492-14.913-48.759-25.589-1.887-1.37-3.818-2.609-5.64-4.074q-2.718-2.248-5.4-4.478a68.27,68.27,0,0,1-5.176-4.889,66.771,66.771,0,0,1-4.893-5.128q-2.246-2.676-4.457-5.318l-1.108-1.318c-.529-.644-.74-1.024-1.126-1.548L343.074,269c-1.337-1.974-2.767-3.826-4-5.858q-1.812-3.09-3.6-6.146a66.142,66.142,0,0,1-3.31-6.253c-1.029-2.121-2.091-4.2-3.074-6.315q-1.356-3.246-2.688-6.446L325.08,234.8q-.584-1.628-1.165-3.243l-2.295-6.4q-1.03-3.223-2.03-6.385c-1.387-4.2-2.52-8.4-3.721-12.479-4.629-16.378-8.4-31.46-12.811-44.285-4.343-12.841-9.19-23.49-13.98-31.435a117.191,117.191,0,0,0-6.67-10.431c-1.966-3.05-3.871-5.272-5.369-7.219-1.512-1.9-2.777-3.219-3.582-4.172C272.64,107.818,272.218,107.334,272.218,107.334Z" transform="translate(-272.218 167.483)" fill="#2e3238"/>
        <path id="Path_1671" data-name="Path 1671" d="M272.218,97.912l5.919,4.488c1.834,1.655,4.236,3.476,6.809,6.039q1.941,1.917,4.168,4.114,2.091,2.4,4.443,5.095c1.637,1.824,3.017,3.951,4.65,6.066q1.2,1.6,2.445,3.286c.836,1.122,1.562,2.44,2.373,3.694a149.443,149.443,0,0,1,9.49,17.215,225.177,225.177,0,0,1,8.561,21.261q2.037,5.748,3.9,11.912c1.294,4.089,2.516,8.295,3.789,12.583,2.549,8.565,5.108,17.512,8.178,26.475,1.451,4.537,3.2,8.963,4.922,13.488.854,2.265,1.905,4.411,2.856,6.649.969,2.222,1.937,4.466,3.1,6.572q1.662,3.219,3.349,6.48,1.882,3.076,3.789,6.186c.647,1.027,1.255,2.094,1.934,3.1l2.13,2.906c1.408,1.882,2.91,4.022,4.25,5.729a126.67,126.67,0,0,0,20.585,19.931,161.521,161.521,0,0,0,24.331,14.514c8.529,4.209,17.422,7.945,26.3,12.3s17.847,9.046,26.308,15.354c2.152,1.468,4.157,3.3,6.241,4.944,1.022.868,2.1,1.634,3.074,2.587l2.942,2.848a69.774,69.774,0,0,1,5.751,5.91l5.569,6.486A156.625,156.625,0,0,1,502.042,385.9c4.95,10.784,8.628,22.227,12.049,33.523s6.359,22.635,9.655,33.5a256.013,256.013,0,0,0,11.392,31,153.285,153.285,0,0,0,15.57,26.126l.264.377c-.079-.086.146.178.207.251l.594.705,1.176,1.4,2.352,2.8,2.334,2.78c.79.867,1.609,1.619,2.409,2.434q2.413,2.4,4.793,4.767l5.086,4.27a57.093,57.093,0,0,0,5.158,3.945c1.755,1.211,3.439,2.547,5.219,3.639,3.549,2.195,7.024,4.42,10.584,6.272,7.034,3.911,14.055,7.17,20.774,10.422,3.367,1.622,6.666,3.179,9.876,4.828q4.831,2.363,9.351,4.966a148.9,148.9,0,0,1,16.682,10.91A124.644,124.644,0,0,1,671.326,599q2.1,2.975,3.979,5.634,1.726,2.842,3.238,5.318c2.012,3.289,3.435,6.339,4.736,8.678,2.3,4.923,3.524,7.547,3.524,7.547s-1.322-2.541-3.807-7.3a143.94,143.94,0,0,0-12.571-18.8,119.455,119.455,0,0,0-24.031-22.644c-10.137-7.158-22.411-13-35.955-19.045-6.773-3.053-13.887-6.119-21.128-9.9-3.646-1.778-7.256-3.957-10.941-6.109-1.851-1.067-3.621-2.4-5.455-3.6a58.322,58.322,0,0,1-5.426-3.936q-2.67-2.134-5.372-4.3-2.6-2.465-5.226-4.96c-.869-.843-1.776-1.658-2.613-2.532l-2.38-2.716-2.4-2.728-1.2-1.37-.6-.687-.386-.451-.282-.386a150.322,150.322,0,0,1-16.671-27.15,261.5,261.5,0,0,1-12.092-31.892c-3.489-11.051-6.5-22.343-9.876-33.464-3.4-11.087-6.991-22.132-11.731-32.346A147.841,147.841,0,0,0,479.7,361.553l-5.04-5.873a66.339,66.339,0,0,0-5.4-5.6l-2.759-2.7c-.922-.9-1.941-1.634-2.906-2.458-1.977-1.56-3.853-3.314-5.9-4.721-8.017-6.039-16.685-10.618-25.389-14.947-8.729-4.3-17.586-8.151-26.258-12.592a167.569,167.569,0,0,1-25.028-15.4A126.858,126.858,0,0,1,359.784,276.1c-1.691-2.213-3.006-4.224-4.511-6.327l-2.18-3.111c-.69-1.07-1.312-2.207-1.966-3.3q-1.935-3.31-3.842-6.581-1.7-3.444-3.371-6.848c-1.169-2.232-2.134-4.58-3.092-6.909s-1.987-4.595-2.824-6.949c-1.691-4.7-3.4-9.3-4.8-13.944-2.967-9.227-5.372-18.291-7.771-26.923-4.743-17.255-9.322-32.9-14.945-45.812a150.171,150.171,0,0,0-8.793-17.286c-.761-1.266-1.419-2.578-2.22-3.737l-2.348-3.4c-1.551-2.161-2.945-4.451-4.425-6.21a127.523,127.523,0,0,0-14.741-16C274.216,99.6,272.218,97.912,272.218,97.912Z" transform="translate(-272.218 148.024)" fill="#2e3238"/>
        <path id="Path_1672" data-name="Path 1672" d="M272.218,89.458l1.687.953c1.112.644,2.784,1.52,4.893,2.866A108.147,108.147,0,0,1,296.442,106.5a119.609,119.609,0,0,1,11.284,11.93c1.937,2.468,3.749,5.009,5.744,7.663a44.16,44.16,0,0,1,2.856,4.273l2.849,4.589a51.2,51.2,0,0,1,2.759,4.892c.883,1.7,1.787,3.415,2.7,5.156,1.78,3.528,3.353,7.351,5.09,11.188,3.131,7.887,6.144,16.378,8.85,25.384q4.032,13.463,8.393,28a272.872,272.872,0,0,0,10.316,28.845,139.812,139.812,0,0,0,14.952,27.015c1.491,2,3.081,4.261,4.5,6.079q2.558,2.938,5.133,5.9a63.423,63.423,0,0,0,5.3,5.389,59.213,59.213,0,0,0,5.555,4.993c15.323,13.166,33.914,20.427,52.526,29.249a170.757,170.757,0,0,1,27.691,15.762A125.846,125.846,0,0,1,497.7,356.336a154.047,154.047,0,0,1,18.465,31.536,276.4,276.4,0,0,1,12.371,35.282c6.934,23.716,12.625,47.4,22.959,66.926,5.122,9.723,10.838,18.656,17.583,26.138.833.972,1.648,2.008,2.488,2.915l2.563,2.544c1.737,1.649,3.324,3.479,5.158,4.969q2.719,2.281,5.4,4.534c1.809,1.477,3.721,2.707,5.558,4.059a169.837,169.837,0,0,0,22.633,13.15q11.388,5.545,21.975,10.695a193.652,193.652,0,0,1,19.924,11.274c3.01,2.216,6.009,4.218,8.779,6.486q2.054,1.747,4.05,3.442a41.14,41.14,0,0,1,3.832,3.5q1.818,1.839,3.578,3.617a37.407,37.407,0,0,1,3.36,3.642c2.095,2.553,4.135,4.92,6.048,7.363a137.245,137.245,0,0,1,9.351,14.358,154.078,154.078,0,0,1,10.373,22.484c1.055,2.691,1.744,4.822,2.248,6.238s.747,2.149.747,2.149-.282-.717-.829-2.1-1.319-3.464-2.47-6.085a163.661,163.661,0,0,0-11.056-21.739,130.882,130.882,0,0,0-9.633-13.773c-1.894-2.25-4-4.528-6.112-6.925a36.323,36.323,0,0,0-3.388-3.418q-1.77-1.664-3.6-3.378a38.291,38.291,0,0,0-3.842-3.255l-4.046-3.188c-2.766-2.091-5.766-3.924-8.757-5.95a209.943,209.943,0,0,0-19.82-10.5l-22.154-10.085a171.911,171.911,0,0,1-23.362-12.81c-1.927-1.349-3.925-2.569-5.83-4.052l-5.715-4.57c-1.93-1.5-3.714-3.439-5.6-5.162l-2.8-2.673c-.894-.926-1.7-1.91-2.556-2.866l-2.541-2.9-1.276-1.456-.64-.729-.407-.469-.3-.411q-2.391-3.3-4.808-6.63a155.507,155.507,0,0,1-8.747-14.5c-5.48-10.159-9.8-21.433-13.565-32.971-3.8-11.541-7.031-23.416-10.473-35.15a266.87,266.87,0,0,0-12.071-34.13,145.558,145.558,0,0,0-17.515-29.725,119.435,119.435,0,0,0-23.33-22.325,165.94,165.94,0,0,0-26.783-15.376c-9.211-4.39-18.526-8.522-27.584-13.356A133.741,133.741,0,0,1,389.652,293.7a65.072,65.072,0,0,1-5.891-5.426,71.477,71.477,0,0,1-5.54-5.772q-2.547-3.012-5.072-5.984c-1.78-2.351-3.188-4.482-4.783-6.719a148.307,148.307,0,0,1-15.138-28.615,281.708,281.708,0,0,1-10.051-29.768q-4.107-14.636-7.921-28.229c-2.513-9.024-5.39-17.374-8.239-25.258-1.594-3.813-3.031-7.636-4.672-11.158q-1.271-2.616-2.5-5.156a49.55,49.55,0,0,0-2.548-4.883q-1.34-2.322-2.638-4.567a42.022,42.022,0,0,0-2.688-4.328c-1.891-2.7-3.721-5.447-5.465-7.832a121.357,121.357,0,0,0-27.859-26.34c-2.052-1.465-3.692-2.443-4.775-3.148Z" transform="translate(-272.218 130.563)" fill="#2e3238"/>
        <path id="Path_1673" data-name="Path 1673" d="M272.218,81.576s2.463,1.165,7.085,3.347a143.276,143.276,0,0,1,19.427,11.4,114.955,114.955,0,0,1,26.29,26.034c8.89,11.869,17.168,27.83,23.248,46.5,3.224,9.267,6.019,19.149,9.033,29.265,2.963,10.137,6.109,20.513,9.983,30.733,1.848,5.171,4.121,10.119,6.359,15.152q1.877,3.619,3.764,7.283c1.215,2.48,2.774,4.659,4.154,7.026l2.141,3.488,2.388,3.255,2.384,3.283,1.2,1.649a3.6,3.6,0,0,1,.211.3l.336.389.672.776q2.692,3.1,5.408,6.232c1.834,1.989,3.753,3.651,5.626,5.512a127,127,0,0,0,25.589,18.067c9.179,5.024,18.862,9.156,28.617,13.733,9.747,4.561,19.62,9.555,29.021,16.127l3.528,2.446,3.41,2.759a74.934,74.934,0,0,1,6.677,5.8l3.224,3.13a34.015,34.015,0,0,1,3.131,3.274l6.1,7.1,5.308,7.421a41.2,41.2,0,0,1,2.563,3.979l2.5,4.166a96.8,96.8,0,0,1,4.579,8.555l2.162,4.341,1.923,4.5c5.158,11.976,9.079,24.56,12.657,36.98s6.845,24.759,10.78,36.453a184.84,184.84,0,0,0,14.2,32.646,121.99,121.99,0,0,0,19.566,25.964c1.841,1.735,3.506,3.681,5.458,5.239q2.874,2.409,5.712,4.791c3.953,2.854,7.835,5.751,11.892,8.1a249.286,249.286,0,0,0,24.12,12.721c7.935,3.838,15.7,7.4,22.966,11.513a120.771,120.771,0,0,1,36.5,29.624,137.792,137.792,0,0,1,20.428,33.5,229.723,229.723,0,0,1,8.943,24.753c1.716,5.889,2.624,9.027,2.624,9.027s-1.022-3.081-2.942-8.859a252.376,252.376,0,0,0-9.69-24.134,132.618,132.618,0,0,0-20.953-32.079,122.227,122.227,0,0,0-36.3-27.658c-7.206-3.847-14.962-7.185-22.973-10.815a250.379,250.379,0,0,1-24.689-12.27c-4.2-2.311-8.282-5.2-12.432-8.065q-3-2.409-6.048-4.843c-2.052-1.566-3.932-3.635-5.923-5.45A122.155,122.155,0,0,1,563.4,498.886a191.5,191.5,0,0,1-15.113-33.866c-4.182-11.995-7.542-24.449-11.109-36.744s-7.428-24.461-12.375-35.858l-1.844-4.282-2.062-4.1a89.772,89.772,0,0,0-4.3-7.985l-2.284-3.8a35.787,35.787,0,0,0-2.434-3.767l-5.326-7.4-5.537-6.449a31.312,31.312,0,0,0-2.942-3.1l-3.035-2.964a69.432,69.432,0,0,0-6.3-5.515l-3.22-2.633-3.36-2.345c-8.943-6.308-18.5-11.21-28.145-15.768-9.651-4.543-19.42-8.84-28.835-14.162a133.087,133.087,0,0,1-26.6-19.284c-1.994-2.011-4.111-3.939-5.973-6.008q-2.692-3.173-5.358-6.305l-.665-.782-.333-.4c-.279-.353-.257-.349-.4-.539l-1.244-1.753-2.473-3.495-2.452-3.488-2.191-3.724c-1.412-2.514-3-4.852-4.232-7.473q-1.914-3.876-3.8-7.7c-2.245-5.288-4.515-10.487-6.327-15.842-3.81-10.612-6.827-21.234-9.633-31.457-2.849-10.2-5.469-20.087-8.489-29.268-5.8-18.548-13.272-34.123-21.711-46.256a115.855,115.855,0,0,0-25.175-26.7,165.66,165.66,0,0,0-18.937-12.344C274.638,82.879,272.218,81.576,272.218,81.576Z" transform="translate(-272.218 114.284)" fill="#2e3238"/>
        <path id="Path_1674" data-name="Path 1674" d="M272.218,73.945l7.46,3.219a213.251,213.251,0,0,1,20.807,10.165,118.623,118.623,0,0,1,29.564,23.159q1.9,2.138,3.857,4.341l.983,1.11.247.276.164.193.111.153.45.607c.6.806,1.2,1.622,1.812,2.443q1.828,2.469,3.7,5c1.222,1.741,2.341,3.706,3.542,5.591,4.84,7.578,8.872,16.372,12.675,25.789,3.8,9.441,6.924,19.7,10.123,30.261,3.149,10.591,6.212,21.549,9.922,32.441,3.721,10.867,7.967,21.77,13.561,31.818a138.94,138.94,0,0,0,9.236,14.4l2.5,3.461.315.432c.011.025.193.254.068.107l.179.205.7.815,1.415,1.631c1.9,2.1,3.75,4.515,5.719,6.4s3.943,3.792,5.93,5.7q3.19,2.589,6.412,5.2a134.529,134.529,0,0,0,13.7,9.015c9.469,5.465,19.506,9.892,29.66,14.619,10.155,4.708,20.481,9.745,30.332,16.455a122.527,122.527,0,0,1,27.176,25.212l5.633,7.866c1.837,2.6,3.507,5.708,5.258,8.543l1.3,2.173L537.879,375l2.273,4.518c1.587,2.961,2.834,6.152,4.186,9.267,5.265,12.553,9.218,25.709,12.914,38.648s7.192,25.73,11.474,37.8c4.3,12.022,9.319,23.441,15.7,33.28,1.5,2.544,3.3,4.76,4.922,7.145.818,1.107,1.694,2.492,2.456,3.363l2.788,3.28A121.433,121.433,0,0,0,605.9,524.06a132.453,132.453,0,0,0,24.967,17.282c8.547,4.73,17.15,8.632,25.457,12.648,8.289,4.071,16.342,8.056,23.748,12.9a118.992,118.992,0,0,1,35.7,35.083c8.793,13.129,14.29,26.54,18.187,37.692,3.95,11.188,6.255,20.351,7.974,26.515,1.648,6.2,2.527,9.506,2.527,9.506s-.99-3.252-2.849-9.352c-.954-3.035-2.137-6.781-3.524-11.176-1.533-4.319-3.085-9.4-5.243-14.83-4.161-10.925-9.916-23.885-18.812-36.331a119.054,119.054,0,0,0-35.53-33.029c-7.3-4.543-15.288-8.267-23.584-12.1-8.314-3.786-17.039-7.492-25.839-12.1a135.178,135.178,0,0,1-26.122-17.252,113.58,113.58,0,0,1-12.021-12.12l-2.813-3.243c-1.122-1.284-1.834-2.452-2.774-3.691-1.734-2.486-3.639-4.813-5.247-7.467-6.809-10.3-12.182-22.242-16.728-34.629-4.55-12.418-8.16-25.393-11.86-38.252s-7.6-25.614-12.657-37.578c-1.3-2.961-2.491-6.014-4.007-8.8l-2.159-4.27-1.087-2.13-1.2-1.98c-1.644-2.624-3.049-5.324-4.879-7.9l-5.451-7.59a116.349,116.349,0,0,0-25.639-23.934c-9.39-6.45-19.409-11.4-29.5-16.13-10.091-4.708-20.271-9.325-30.018-15.115-9.751-5.833-19.016-12.553-27.255-21.4-2.109-2.088-3.828-4.393-5.748-6.563l-1.4-1.646-.7-.825-.175-.205c-.232-.291-.161-.212-.254-.337l-.329-.46-2.609-3.675a133.08,133.08,0,0,1-9.512-15.327c-5.7-10.68-9.915-22.092-13.54-33.277-3.617-11.216-6.527-22.337-9.494-32.928-3.01-10.569-5.937-20.755-9.5-30.056A164.6,164.6,0,0,0,342.545,132.6c-1.112-1.864-2.109-3.77-3.274-5.542q-1.812-2.612-3.574-5.147-.884-1.274-1.748-2.523l-.436-.625-.107-.156c.043.058-.057-.061-.079-.089l-.232-.279-.933-1.119q-1.855-2.225-3.66-4.393a119.392,119.392,0,0,0-28.535-23.983c-4.261-2.753-8.246-4.73-11.635-6.682-3.453-1.769-6.391-3.271-8.772-4.491Z" transform="translate(-272.218 98.524)" fill="#2e3238"/>
        <path id="Path_1675" data-name="Path 1675" d="M272.218,66.278s2.67,1.278,7.721,3.5c5.04,2.278,12.518,5.275,21.893,9.7C311.143,84,322.567,89.783,334.22,99.862a112.444,112.444,0,0,1,17.086,18.432q2,2.717,4.053,5.5,1.887,3.081,3.817,6.235.965,1.582,1.937,3.185.863,1.678,1.737,3.372c1.144,2.278,2.391,4.518,3.485,6.9a261.962,261.962,0,0,1,11.678,30.945c3.485,10.971,6.591,22.469,10.2,33.985a246.5,246.5,0,0,0,12.972,34.007,128.612,128.612,0,0,0,19.652,29.9l2.981,3.433,3.1,2.964a69.354,69.354,0,0,0,6.391,5.76,116.59,116.59,0,0,0,13.954,10c9.715,6,20.121,10.7,30.683,15.575,10.559,4.859,21.339,9.935,31.644,16.786a121.97,121.97,0,0,1,28.381,26.049l5.862,8.188c1.884,2.8,3.642,5.965,5.458,8.935a175.387,175.387,0,0,1,9.129,19.042c5.38,13.132,9.362,26.871,13.175,40.325s7.524,26.711,12.225,39.092a151.913,151.913,0,0,0,17.4,33.682l2.613,3.678c.414.552.922,1.364,1.251,1.7l1.462,1.72c1.959,2.244,3.86,4.675,5.84,6.732q3,2.943,5.966,5.861c2.084,1.824,4.225,3.553,6.319,5.325a158.009,158.009,0,0,0,26.69,16.531c9.036,4.6,18.058,8.565,26.669,13.006a167.937,167.937,0,0,1,24.285,14.879c1.866,1.4,3.628,2.986,5.415,4.442.89.742,1.769,1.48,2.649,2.216.829.821,1.655,1.634,2.477,2.446q2.456,2.442,4.858,4.825,2.22,2.648,4.382,5.239,1.083,1.292,2.145,2.575c.793.9,1.337,1.8,2.005,2.694,1.28,1.8,2.574,3.488,3.742,5.4,2.438,3.675,4.583,7.394,6.563,11.087,7.91,14.852,12.442,29.409,16,41.278,3.471,11.946,5.823,21.476,7.61,27.895,1.744,6.437,2.749,9.84,2.749,9.84s-1.115-3.344-3.07-9.686c-1.973-6.333-4.725-15.7-8.436-27.478-3.821-11.676-8.686-25.911-16.778-40.125-2.023-3.534-4.225-7.1-6.638-10.52-1.144-1.763-2.5-3.439-3.821-5.177a61.487,61.487,0,0,0-4.147-4.944q-2.145-2.437-4.354-4.938-2.364-2.248-4.786-4.561-1.207-1.149-2.434-2.314c-.865-.69-1.73-1.385-2.606-2.084-1.759-1.373-3.478-2.872-5.319-4.184a161.9,161.9,0,0,0-23.97-13.969c-8.55-4.172-17.622-7.912-26.854-12.35a160.94,160.94,0,0,1-27.716-16.363c-2.223-1.8-4.479-3.547-6.706-5.423l-6.487-6.266c-2.1-2.146-3.943-4.472-5.944-6.713l-1.473-1.7a24.74,24.74,0,0,1-1.5-1.977l-2.784-3.841a158.555,158.555,0,0,1-18.555-35.132c-5-12.8-8.847-26.316-12.675-39.733s-7.767-26.782-12.943-39.313a166.42,166.42,0,0,0-8.686-17.994c-1.7-2.734-3.217-5.533-5.047-8.24l-5.676-7.9a115.58,115.58,0,0,0-26.79-24.734c-9.833-6.594-20.324-11.6-30.851-16.491s-21.135-9.785-31.183-16.161a123.363,123.363,0,0,1-14.516-10.643,75.091,75.091,0,0,1-6.795-6.266l-3.317-3.271-2.956-3.473a131.783,131.783,0,0,1-20.321-31.7,256.117,256.117,0,0,1-12.843-35.316c-3.481-11.765-6.416-23.324-9.694-34.218a259.8,259.8,0,0,0-10.963-30.549c-1.033-2.339-2.205-4.534-3.285-6.771-.55-1.113-1.094-2.222-1.637-3.32q-.906-1.55-1.8-3.078-1.8-3.062-3.546-6.051-1.995-2.855-3.936-5.64a111.909,111.909,0,0,0-16.189-18.591C321.724,91.993,310.55,85.8,301.385,80.93c-9.243-4.724-16.592-8.234-21.564-10.744C274.845,67.694,272.218,66.278,272.218,66.278Z" transform="translate(-272.218 82.689)" fill="#2e3238"/>
        <path id="Path_1676" data-name="Path 1676" d="M272.218,58.282l2,1.107c1.326.708,3.256,1.867,5.851,3.133,5.129,2.707,12.832,6.1,22.644,10.41,9.776,4.383,21.84,9.429,34.718,18.223a114.334,114.334,0,0,1,19.291,16.556c1.562,1.7,3.081,3.522,4.64,5.334.4.49.743.831,1.2,1.453l1.069,1.465q1.078,1.471,2.163,2.961c3,3.789,5.64,8.448,8.457,13.012A204.423,204.423,0,0,1,388,163.15c3.986,11.271,7.288,23.257,10.895,35.362s7.46,24.391,12.521,36.113c1.29,2.909,2.5,5.9,4.021,8.66,1.5,2.765,2.756,5.778,4.468,8.381,1.666,2.645,3.167,5.484,4.976,8.01q2.691,3.72,5.4,7.47,3.083,3.573,6.2,7.176c2.1,2.3,4.293,4.2,6.438,6.345a119.185,119.185,0,0,0,14.18,11.029c9.94,6.618,20.7,11.682,31.676,16.694,10.966,5.027,22.222,10.076,32.992,17.056,2.649,1.864,5.34,3.617,7.953,5.576,2.545,2.109,5.158,4.1,7.649,6.324,2.416,2.366,4.893,4.644,7.256,7.1l6.877,7.982,5.983,8.381c1.93,3,3.775,6.235,5.651,9.349,1.762,3.2,3.31,6.511,4.968,9.76,1.541,3.329,2.917,6.762,4.375,10.134,5.48,13.724,9.44,28.066,13.386,42.041s7.907,27.7,13.1,40.361a144.862,144.862,0,0,0,19.177,34.059l6.012,7.059a36.852,36.852,0,0,0,3.113,3.225l3.131,3.062,1.558,1.529,1.666,1.389,3.335,2.746a78.464,78.464,0,0,0,6.795,5.122c9.2,6.453,18.837,11.379,28.338,15.955,9.5,4.6,18.9,8.807,27.748,13.886a140.745,140.745,0,0,1,24.5,17.518c3.553,3.565,7.152,6.857,10.212,10.775,1.562,1.931,3.2,3.611,4.64,5.686,1.4,1.962,2.806,3.847,4.136,5.833a149.613,149.613,0,0,1,13.022,24.636c6.9,16.406,10.859,31.782,14.3,44.236,3.381,12.5,6.041,22.316,8.167,28.857.994,3.311,1.9,5.766,2.456,7.452.576,1.68.869,2.547.869,2.547l-.947-2.5c-.608-1.658-1.6-4.071-2.692-7.326-2.312-6.453-5.376-16.109-9.011-28.5-3.728-12.31-8.046-27.469-15.2-43.31a143.5,143.5,0,0,0-13.211-23.462c-1.34-1.894-2.817-3.749-4.232-5.677-1.337-1.864-3.017-3.537-4.532-5.346-3.009-3.728-6.555-6.83-10.037-10.2a135,135,0,0,0-24.06-16.464c-8.725-4.77-18.1-8.724-27.719-13.123-9.619-4.383-19.552-9.172-29.21-15.652a80.989,80.989,0,0,1-7.159-5.177l-3.51-2.851L628.869,527l-1.694-1.634c-2.209-2.213-4.64-4.316-6.688-6.67l-6.23-7.237a151.769,151.769,0,0,1-20.338-35.628c-5.472-13.163-9.6-27.2-13.608-41.168S572.336,406.7,567.021,393.6c-1.408-3.2-2.738-6.48-4.218-9.634-1.583-3.05-3.085-6.223-4.736-9.184-1.755-2.848-3.392-5.735-5.222-8.568l-6.016-8.35-6.252-7.311c-2.216-2.33-4.547-4.491-6.809-6.75-2.345-2.124-4.818-4.022-7.22-6.048-2.474-1.879-5.047-3.574-7.56-5.374-10.28-6.768-21.264-11.811-32.227-16.93-10.963-5.1-21.983-10.367-32.309-17.341a124.552,124.552,0,0,1-14.844-11.71c-2.291-2.3-4.729-4.5-6.863-6.876q-3.094-3.623-6.166-7.222a147.2,147.2,0,0,1-19.713-34.556c-5.086-12.3-8.843-24.958-12.285-37.21s-6.559-24.21-10.3-35.325a200.661,200.661,0,0,0-12.925-30.657c-2.624-4.4-5-8.84-8-12.786q-1.067-1.513-2.12-3.007l-1.051-1.5c-.25-.362-.711-.88-1.055-1.306-1.494-1.781-2.91-3.626-4.393-5.331A114.038,114.038,0,0,0,336.286,93.76c-12.432-9.116-24.327-14.613-33.993-19.364-9.723-4.629-17.3-8.537-22.362-11.477-2.559-1.4-4.45-2.655-5.751-3.43Z" transform="translate(-272.218 66.174)" fill="#2e3238"/>
        <path id="Path_1677" data-name="Path 1677" d="M272.218,49.624l1.973,1.422c1.319.9,3.188,2.431,5.783,4.049A179.36,179.36,0,0,0,302.99,67.535c10.094,4.806,22.687,9.573,36.6,17.2a121.419,121.419,0,0,1,21.261,14.637q1.335,1.136,2.688,2.287,1.282,1.264,2.588,2.547c1.7,1.76,3.539,3.375,5.154,5.38,1.666,1.977,3.335,3.773,5.054,5.968q2.311,3.173,4.675,6.41a163.023,163.023,0,0,1,16.4,30.948c4.625,11.477,8.378,23.879,12.1,36.545s7.428,25.645,12.246,38.185c4.818,12.522,10.727,24.627,18.33,35.236l2.867,3.973.718,1,.711.831,1.616,1.87c2.177,2.412,4.275,5.223,6.563,7.225a112.328,112.328,0,0,0,14.3,12.154c10.148,7.293,21.271,12.758,32.656,18,11.385,5.254,23.1,10.4,34.361,17.475a119.452,119.452,0,0,1,30.947,27.677l6.327,8.85c1.977,3.206,3.918,6.514,5.862,9.772,1.709,3.4,3.438,6.777,5.093,10.2,1.48,3.537,3.056,7.026,4.446,10.6,5.551,14.352,9.59,29.277,13.715,43.782s8.4,28.682,14.122,41.612a133.5,133.5,0,0,0,21.236,34.133c1.072,1.229,2.12,2.532,3.2,3.694l3.289,3.206,3.27,3.2,3.5,2.9,3.481,2.872c1.18.917,2.416,1.717,3.614,2.578l3.6,2.559c1.2.843,2.466,1.545,3.692,2.321,9.84,6.14,20.027,10.864,29.968,15.609s19.674,9.512,28.678,15.413a124.894,124.894,0,0,1,24.256,20.866q2.584,3.062,5.108,6.06c1.712,2.173,3.088,4.252,4.618,6.348,1.533,2,2.845,4.4,4.228,6.575.676,1.116,1.373,2.2,2.016,3.32q.906,1.724,1.794,3.424a179.55,179.55,0,0,1,11.488,27.091c5.98,17.73,9.722,33.774,13.49,46.639a294.1,294.1,0,0,0,9.765,29.329c1.269,3.307,2.47,5.686,3.174,7.369.733,1.655,1.115,2.51,1.115,2.51l-1.19-2.455c-.754-1.643-2.03-3.97-3.4-7.219a263.612,263.612,0,0,1-10.612-28.977c-4.068-12.764-8.186-28.685-14.487-45.959a173.2,173.2,0,0,0-11.846-26.117,125.524,125.524,0,0,0-17.593-24.51,119.572,119.572,0,0,0-23.748-19.661c-8.836-5.539-18.451-10.021-28.434-14.521s-20.371-9.055-30.626-15.164c-1.276-.776-2.588-1.471-3.85-2.317l-3.785-2.578c-1.255-.889-2.541-1.714-3.782-2.658l-3.664-2.983-3.678-3.016-3.553-3.433-3.56-3.461c-1.123-1.2-2.148-2.461-3.231-3.691a140.191,140.191,0,0,1-22.494-35.721c-6.044-13.481-10.512-28.06-14.712-42.6s-8.257-29.164-13.647-42.893c-1.351-3.427-2.867-6.722-4.3-10.1l-4.861-9.631-5.4-8.926-6.159-8.559a113.42,113.42,0,0,0-29.2-26.4c-10.777-6.876-22.244-12.028-33.664-17.39s-22.855-11.044-33.435-18.751a116.981,116.981,0,0,1-15.113-13.037,92.814,92.814,0,0,1-6.681-7.44l-1.608-1.882-.887-1.055-.758-1.054-3-4.206a157.374,157.374,0,0,1-18.923-37.066c-4.8-13.068-8.364-26.316-11.9-39.028s-7.052-24.97-11.4-36.226a159.262,159.262,0,0,0-15.406-30.218,120.839,120.839,0,0,0-39.762-37.557c-13.561-8.028-26.054-13.276-36.069-18.46a166.861,166.861,0,0,1-22.747-13.521c-2.549-1.747-4.368-3.372-5.662-4.331Z" transform="translate(-272.218 48.292)" fill="#2e3238"/>
        <path id="Path_1678" data-name="Path 1678" d="M272.218,39.874s2.549,2.5,7.328,7.188a134.423,134.423,0,0,0,22.748,16.047c10.248,5.864,23.241,11.13,38.028,17.96a164.691,164.691,0,0,1,23.044,12.779c1.934,1.395,3.982,2.618,5.9,4.209s3.871,3.173,5.841,4.788a123.533,123.533,0,0,1,11.2,11.486q1.367,1.568,2.745,3.157c1,1.241,1.712,2.308,2.584,3.482,1.648,2.351,3.431,4.491,5.015,7.084s3.181,5.208,4.793,7.85q2.145,4.152,4.325,8.378c5.551,11.486,10.019,24.219,14.033,37.419,4.039,13.2,7.7,26.88,12.292,40.269,4.6,13.359,10.1,26.5,17.515,38.142l1.351,2.222,1.494,2.072,3,4.154,1.5,2.088.186.261c-.107-.138.093.1.125.135l.422.49.847.978,3.392,3.93a84.063,84.063,0,0,0,6.981,7.148,90.1,90.1,0,0,0,7.467,6.4c10.312,8.129,21.793,14.14,33.639,19.591,11.835,5.511,24.063,10.738,35.848,17.969A120.491,120.491,0,0,1,578.252,356.1l6.584,9.242c2.019,3.412,4.132,6.774,6.044,10.244,1.737,3.568,3.65,7.02,5.226,10.689,1.516,3.706,3.253,7.286,4.554,11.1,5.672,15.017,9.776,30.6,14.1,45.673,4.282,15.1,9,29.725,15.377,42.866,1.669,3.209,3.138,6.6,5.047,9.552a99.041,99.041,0,0,0,5.623,8.9l3,4.209c.468.641,1.062,1.527,1.426,1.974l1.683,1.968,3.349,3.921,1.669,1.959,1.723,1.692a114.657,114.657,0,0,0,14.39,12.436,153.56,153.56,0,0,0,15.474,9.8c10.509,5.849,21.246,10.517,31.6,15.664,10.359,5.119,20.356,10.811,29.367,17.886A117.417,117.417,0,0,1,768,600.685a143.271,143.271,0,0,1,9.008,14.263q1.9,3.761,3.76,7.443c1.248,2.437,2.213,5.046,3.306,7.513A268.269,268.269,0,0,1,794.1,659.27c5.362,18.839,9.494,35.4,14.091,48.454a194.961,194.961,0,0,0,12.6,29c3.678,6.085,5.637,9.328,5.637,9.328s-2.055-3.154-5.912-9.07a180.388,180.388,0,0,1-13.44-28.6c-4.911-12.973-9.437-29.507-15.17-48.028a262.536,262.536,0,0,0-10.5-28.581c-1.119-2.37-2.127-4.877-3.363-7.231s-2.481-4.736-3.742-7.151a138.478,138.478,0,0,0-8.915-13.635,111.87,111.87,0,0,0-23-23.438c-8.8-6.652-18.587-11.986-28.892-16.826-10.3-4.871-21.15-9.319-32-15.078a124.715,124.715,0,0,1-31.4-23.012l-1.862-1.824-1.676-1.943-3.367-3.9-1.687-1.956c-.736-.892-1.119-1.508-1.694-2.281l-3.181-4.414a105.18,105.18,0,0,1-5.969-9.346c-2.023-3.111-3.585-6.64-5.351-10.008-6.759-13.748-11.692-28.891-16.074-44.074-4.425-15.183-8.543-30.482-14.062-44.871-1.269-3.678-2.942-7.05-4.4-10.585-1.516-3.491-3.346-6.725-5-10.106-1.8-3.206-3.725-6.229-5.569-9.365l-6.405-8.929a114.293,114.293,0,0,0-30.6-27.245c-11.292-7.035-23.294-12.28-35.212-17.92-11.917-5.582-23.8-11.869-34.59-20.477a95.564,95.564,0,0,1-7.885-6.848,92.427,92.427,0,0,1-7.342-7.614l-3.374-3.954-.843-.984-.418-.493-.3-.356-.2-.276-1.573-2.2-3.142-4.4-1.562-2.2-1.415-2.345c-7.732-12.332-13.518-26.1-17.99-39.92-4.518-13.831-8.01-27.646-11.835-40.775-3.8-13.132-7.985-25.6-13.207-36.821q-2.048-4.124-4.064-8.178-2.236-3.8-4.432-7.532c-1.458-2.5-3.278-4.767-4.876-7.127-.8-1.119-1.68-2.437-2.42-3.372q-1.308-1.563-2.609-3.105a122.25,122.25,0,0,0-10.7-11.357q-2.842-2.414-5.612-4.77c-1.844-1.576-3.81-2.863-5.673-4.285a165.2,165.2,0,0,0-22.433-13.38c-14.534-7.3-27.512-13.064-37.7-19.327A129.755,129.755,0,0,1,279.331,47.4C274.691,42.495,272.218,39.874,272.218,39.874Z" transform="translate(-272.218 28.155)" fill="#2e3238"/>
        <path id="Path_1679" data-name="Path 1679" d="M272.218,28.393l1.619,2.388c1.058,1.579,2.613,3.951,4.861,6.774,2.105,2.989,5.147,6.088,8.554,10a126.883,126.883,0,0,0,12.8,11.452A131.619,131.619,0,0,0,317.316,70.29q9.785,5.242,21.45,10.33c7.732,3.5,16.056,6.971,24.621,11.556a132.5,132.5,0,0,1,25.786,17.712c8.482,7.43,16.242,17.049,23.073,28.112,6.9,11.238,12.428,24.087,17.061,37.8,4.661,13.687,8.479,28.112,12.914,42.409,4.454,14.269,9.5,28.529,16.578,41.413q2.81,4.662,5.64,9.368,3.115,4.3,6.248,8.632c2.377,2.725,4.743,5.561,7.156,8.224,2.5,2.345,4.89,4.852,7.5,7.105,10.487,9.1,22.379,15.759,34.708,21.62,12.317,5.882,25.164,11.149,37.549,18.576a121.993,121.993,0,0,1,34.178,29.694c2.266,3.194,4.557,6.278,6.781,9.592l3.2,5.346c1.044,1.8,2.188,3.537,3.06,5.423,1.812,3.743,3.85,7.332,5.394,11.256l2.456,5.775c.8,1.934,1.473,3.933,2.216,5.9,5.826,15.783,9.962,32.152,14.576,47.85s9.826,30.859,16.968,44.224c1.777,3.338,3.789,6.443,5.655,9.665,2.059,3.022,4.207,5.931,6.295,8.893q3.48,4.1,6.945,8.169,3.646,3.559,7.26,7.087c10.1,9.03,21.307,15.437,32.5,21.114,11.22,5.653,22.54,10.523,33.281,16.461a130.3,130.3,0,0,1,29.628,21.706q1.646,1.628,3.271,3.243c1.072,1.1,2.034,2.351,3.046,3.516q1.5,1.775,2.984,3.531l1.537,1.833,1.323,1.873c1.748,2.5,3.514,4.926,5.208,7.43q2.38,4.037,4.725,8a196.789,196.789,0,0,1,13.908,32.867c3.6,10.913,6.323,21.525,9.068,31.377q3.983,14.847,8.1,27.331a199.7,199.7,0,0,0,8.854,22,161.79,161.79,0,0,0,9,16.32c3.06,4.319,5.48,8.191,7.839,10.885,2.223,2.875,4.078,4.843,5.315,6.2s1.873,2.06,1.873,2.06-.658-.671-1.93-1.974-3.2-3.2-5.49-5.962c-2.431-2.581-4.99-6.379-8.182-10.585a142.533,142.533,0,0,1-9.461-16.108,198.679,198.679,0,0,1-9.408-21.929c-2.938-8.286-5.862-17.4-8.725-27.208-5.841-19.5-12.021-41.974-23.648-62.616q-2.257-3.711-4.568-7.507c-1.705-2.437-3.514-4.846-5.29-7.3L776,606.722l-1.394-1.582q-1.453-1.66-2.917-3.341c-.99-1.1-1.927-2.287-2.97-3.329q-1.587-1.522-3.192-3.053a124.712,124.712,0,0,0-28.956-20.409c-10.584-5.6-21.893-10.211-33.356-15.707-11.46-5.453-23.08-12.176-33.764-21.546-2.627-2.48-5.262-5.046-7.864-7.617l-3.539-4.1-1.776-2.057-.89-1.03-.443-.515-.222-.257a4.165,4.165,0,0,1-.3-.4c-2.216-3.1-4.493-6.155-6.673-9.331-1.991-3.378-4.121-6.649-6.009-10.146-7.578-14.024-13.061-29.783-17.79-45.667-4.747-15.909-8.907-32.024-14.591-47.179-.718-1.882-1.376-3.816-2.152-5.659l-2.37-5.5c-1.487-3.743-3.431-7.1-5.161-10.649-.843-1.809-1.887-3.35-2.852-4.993l-2.935-4.883c-2.152-3.2-4.525-6.324-6.766-9.5L583.6,364.18c-1.219-1.389-2.37-2.872-3.642-4.178l-3.889-3.8a47.483,47.483,0,0,0-3.964-3.675c-2.781-2.2-5.419-4.687-8.361-6.578l-4.311-3.022c-1.448-.987-2.963-1.821-4.443-2.744-11.892-7.237-24.542-12.534-37.024-18.582-12.468-6.03-24.835-13.015-35.841-22.671-2.756-2.412-5.379-5.183-8.053-7.752-2.452-2.74-4.768-5.548-7.149-8.3-2.423-3.271-4.479-6.241-6.72-9.362q-3-4.938-5.9-9.9c-7.36-13.607-12.618-28.422-16.9-43.022-4.318-14.612-7.935-29.017-12.328-42.5-4.343-13.469-9.6-26.08-16-36.855-6.48-10.864-13.869-20.326-21.968-27.662-16.217-14.83-33.846-22.7-49.148-30.142-7.7-3.645-14.852-7.369-21.354-11.112A134.768,134.768,0,0,1,299.4,60.331a118.1,118.1,0,0,1-12.653-12.071c-3.285-4.049-6.259-7.3-8.3-10.41-2.18-2.937-3.66-5.37-4.679-7S272.218,28.393,272.218,28.393Z" transform="translate(-272.218 4.443)" fill="#2e3238"/>
        <path id="Path_1680" data-name="Path 1680" d="M273.629,17.681l1.394,2.734c.926,1.8,2.241,4.528,4.232,7.82A125.49,125.49,0,0,0,286.9,40.006a142.044,142.044,0,0,0,11.906,14.027c9.426,9.662,22.512,18.72,38.371,26.181,7.91,3.829,16.51,7.375,25.486,11.587a162.442,162.442,0,0,1,27.573,15.854,119.881,119.881,0,0,1,25.832,26.276q1.437,1.973,2.888,3.963c.933,1.4,1.812,2.924,2.724,4.393q1.357,2.23,2.724,4.475c.929,1.49,1.648,3.121,2.488,4.684,1.633,3.154,3.3,6.324,4.682,9.72q1.094,2.511,2.195,5.036c.726,1.692,1.33,3.458,2.005,5.193,5.326,13.932,9.44,28.869,13.854,43.81s9.2,29.955,16.071,43.69a126.534,126.534,0,0,0,26.2,36.064,120.536,120.536,0,0,0,16.81,13.166c3.028,1.8,6.023,3.7,9.125,5.367,3.121,1.631,6.205,3.35,9.411,4.834,12.7,6.226,25.993,11.486,38.847,19.06a124.006,124.006,0,0,1,35.369,30.335l3.621,5.052c1.158,1.692,2.381,3.176,3.482,5.039l3.31,5.533,1.648,2.771c.525.935.979,1.913,1.469,2.866,1.93,3.838,3.91,7.639,5.519,11.685.833,2,1.726,3.97,2.509,5.993l2.255,6.125c5.944,16.375,10.073,33.323,14.959,49.5,1.162,4.086,2.513,8.019,3.789,12,1.312,3.951,2.8,7.765,4.214,11.624A166.075,166.075,0,0,0,658.6,507.37l2.967,4.975c.965,1.674,2.159,3.108,3.224,4.671l3.274,4.6.2.285c.082.123-.029-.021.129.166l.461.539.915,1.073,1.837,2.149,3.66,4.276,3.774,3.678c1.276,1.2,2.456,2.517,3.8,3.62l4.025,3.317c10.78,8.758,22.576,14.836,34.293,20.464s23.448,10.87,34.382,17.656a121.153,121.153,0,0,1,29.4,25.111c1.047,1.244,2.1,2.483,3.138,3.718,1.169,1.4,1.93,2.661,2.91,3.991q1.389,1.968,2.767,3.918c.454.659.922,1.281,1.362,1.965l1.269,2.137c1.644,2.869,3.431,5.6,4.9,8.513,1.44,2.924,2.9,5.794,4.279,8.684A261.687,261.687,0,0,1,818.019,672c3.306,11.44,6.087,22.4,9.093,32.477,5.859,20.222,12.943,36.861,20.556,48.92a149.068,149.068,0,0,0,11,15.152,110.181,110.181,0,0,0,9.233,9.742c2.588,2.541,4.722,4.212,6.134,5.392s2.145,1.778,2.145,1.778-.743-.573-2.191-1.683-3.624-2.7-6.287-5.131a117.7,117.7,0,0,1-20.985-24.256c-7.942-11.933-15.484-28.627-21.8-48.819-3.231-10.064-6.234-20.943-9.74-32.183S807.8,650.448,802.5,639.167q-2.1-4.124-4.25-8.332c-1.448-2.783-3.164-5.3-4.747-8l-1.219-2c-.429-.656-.919-1.284-1.38-1.928q-1.4-1.922-2.813-3.859c-.929-1.226-1.916-2.743-2.813-3.749q-1.528-1.752-3.07-3.516a115.373,115.373,0,0,0-28.645-23.637c-10.7-6.382-22.311-11.333-34.193-16.758-11.885-5.349-24.056-11.694-35.412-20.746l-4.236-3.452c-1.415-1.153-2.738-2.584-4.114-3.872l-4.093-3.976-3.678-4.258L666,528.947l-.926-1.07-.457-.533c0,.012-.268-.313-.318-.389l-.218-.3-3.478-4.819c-1.129-1.643-2.388-3.154-3.417-4.911l-3.153-5.223a173.266,173.266,0,0,1-10.959-22.451c-1.48-3.982-3.045-7.945-4.411-12-1.33-4.071-2.738-8.126-3.932-12.252-5.029-16.424-9.2-33.207-15.005-48.941l-2.191-5.882c-.761-1.937-1.619-3.8-2.423-5.7-1.551-3.865-3.446-7.443-5.286-11.069-.465-.9-.9-1.833-1.394-2.7l-1.519-2.52-3.035-5.049c-2.12-3.271-4.768-6.679-6.877-9.714a117.914,117.914,0,0,0-33.46-28.964c-12.346-7.391-25.518-12.709-38.407-19.119-3.235-1.523-6.42-3.317-9.612-5.012-3.185-1.738-6.3-3.731-9.419-5.619a125.95,125.95,0,0,1-17.654-14,133.686,133.686,0,0,1-27.387-38.1c-7.113-14.465-12.074-29.985-16.274-45.125-4.261-15.143-8.146-29.933-13.157-43.568-.636-1.7-1.2-3.439-1.887-5.082s-1.376-3.28-2.062-4.908c-1.3-3.32-2.867-6.394-4.4-9.463-.783-1.511-1.473-3.133-2.327-4.543s-1.68-2.848-2.513-4.261-1.634-2.845-2.52-4.224q-1.426-2.019-2.838-4.022a117.153,117.153,0,0,0-24.638-25.859c-8.85-6.756-18.044-11.67-26.855-16.145s-17.361-8.295-25.26-12.415C320.475,74.942,307.4,65.362,298,55.2a131.52,131.52,0,0,1-11.652-14.554,128.974,128.974,0,0,1-7.37-12.163c-1.912-3.393-3.149-6.167-4.025-8.01Z" transform="translate(-268.585 -17.681)" fill="#2e3238"/>
        <path id="Path_1681" data-name="Path 1681" d="M279.97,17.681s.554.8,1.63,2.357c.54.779,1.208,1.747,2,2.894l2.913,3.786c1.062,1.477,2.406,2.894,3.857,4.54,1.462,1.612,3.013,3.452,4.768,5.294q2.745,2.575,5.887,5.527c2.084,1.971,4.525,3.685,6.977,5.7s5.276,3.657,8.1,5.64c2.888,1.842,5.991,3.565,9.2,5.4q9.785,5.145,21.414,10.2c7.721,3.467,16,7.01,24.535,11.578a130.059,130.059,0,0,1,25.586,17.945c2.03,1.983,4.15,3.89,6.173,6l5.887,6.75.747.855c.357.451.486.653.736.993l1.348,1.848c.9,1.232,1.8,2.474,2.713,3.718a89.764,89.764,0,0,1,5.229,8.086c6.788,11.259,12.239,24.118,16.818,37.793,4.611,13.656,8.414,28.033,12.85,42.268,4.464,14.2,9.512,28.416,16.643,41.189,1.891,3.078,3.7,6.253,5.673,9.288,2.077,2.829,4.221,5.959,6.259,8.58,2.377,2.691,4.718,5.591,7.145,8.148,2.506,2.323,4.847,4.865,7.492,7.056,10.477,9.031,22.34,15.643,34.633,21.476,12.285,5.852,25.089,11.124,37.428,18.533a122.141,122.141,0,0,1,33.964,29.492l3.489,4.871c1.122,1.615,2.284,3.1,3.367,4.819l3.192,5.328c1.04,1.79,2.188,3.522,3.056,5.4,1.8,3.734,3.842,7.3,5.379,11.21l2.452,5.763c.811,1.919,1.473,3.921,2.212,5.876,5.816,15.725,9.951,32.039,14.544,47.7s9.769,30.776,16.853,44.126c1.726,3.372,3.764,6.434,5.616,9.653,1.994,3.078,4.178,5.928,6.244,8.9l.393.552c.079.116-.036-.031.118.153l.222.257.883,1.033,1.759,2.06,3.514,4.114c2.388,2.507,4.822,4.751,7.21,7.136,10.015,9.095,21.178,15.5,32.32,21.194,11.174,5.656,22.458,10.5,33.174,16.375A132.41,132.41,0,0,1,774.2,578.535a124.673,124.673,0,0,1,12.239,13.819q2.627,3.72,5.208,7.375c1.651,2.566,3.178,5.309,4.743,7.912a190.933,190.933,0,0,1,14.094,32.621c3.585,10.879,6.366,21.43,9.086,31.264q3.978,14.8,8,27.291c1.44,4.092,2.792,8.05,4.239,11.725,1.558,3.6,2.838,7.188,4.425,10.318s2.924,6.229,4.475,8.9,3,5.177,4.346,7.51c1.444,2.232,2.878,4.2,4.143,6.06,1.283,1.839,2.4,3.559,3.564,4.917q1.684,2.106,2.974,3.712l2.266,2.544c1.219,1.37,1.848,2.075,1.848,2.075s-.647-.677-1.905-1.989c-.629-.659-1.416-1.478-2.345-2.449-.886-1.027-1.912-2.222-3.078-3.574-1.2-1.3-2.377-2.995-3.714-4.776-1.319-1.805-2.82-3.721-4.336-5.907q-2.134-3.435-4.582-7.372c-1.623-2.639-3.038-5.72-4.707-8.828s-3.038-6.679-4.69-10.272c-1.537-3.663-2.985-7.611-4.525-11.7-2.888-8.283-5.758-17.381-8.615-27.156-2.924-9.742-5.916-20.155-9.665-30.736a191.5,191.5,0,0,0-14.162-31.466c-1.53-2.455-2.974-4.99-4.607-7.455q-2.622-3.6-5.3-7.268a119.816,119.816,0,0,0-11.871-12.945,126.592,126.592,0,0,0-28.974-20.127c-10.562-5.542-21.84-10.128-33.267-15.633-11.417-5.472-23-12.194-33.6-21.641-2.581-2.532-5.276-5.021-7.785-7.645l-3.528-4.086-1.773-2.051-.883-1.027-.222-.254c.007.012-.261-.307-.307-.38l-.418-.576c-2.2-3.105-4.507-6.109-6.627-9.337-1.969-3.372-4.128-6.606-5.959-10.134-7.521-14.006-12.964-29.718-17.672-45.557-4.722-15.86-8.879-31.913-14.548-47.013-.722-1.876-1.369-3.807-2.155-5.637l-2.363-5.481c-1.476-3.734-3.428-7.072-5.147-10.609-.844-1.809-1.887-3.332-2.845-4.975l-2.927-4.865c-2.109-3.13-4.615-6.434-6.648-9.343A116.211,116.211,0,0,0,562,328.157c-11.856-7.225-24.453-12.522-36.9-18.536-12.432-6-24.764-12.939-35.751-22.521-2.777-2.327-5.372-5.141-8.042-7.688-2.516-2.688-4.772-5.515-7.163-8.255-2.456-3.16-4.479-6.192-6.72-9.282-2.059-3.206-3.96-6.563-5.93-9.818-7.417-13.5-12.678-28.272-16.971-42.817-4.321-14.557-7.924-28.925-12.275-42.388-4.3-13.454-9.465-26.052-15.774-36.885A118.654,118.654,0,0,0,394.748,102.2a133.711,133.711,0,0,0-24.71-18.058c-8.307-4.779-16.478-8.586-24.12-12.31-7.674-3.642-14.816-7.3-21.314-10.977-3.206-1.965-6.305-3.807-9.183-5.766-2.817-2.106-5.619-3.847-8.06-5.971s-4.854-3.93-6.927-6q-3.1-3.127-5.8-5.852c-1.709-1.928-3.206-3.829-4.625-5.508-1.39-1.7-2.72-3.2-3.746-4.736q-1.6-2.225-2.809-3.927c-.761-1.183-1.4-2.176-1.92-2.98Z" transform="translate(-252.261 -17.681)" fill="#2e3238"/>
        <path id="Path_1682" data-name="Path 1682" d="M287.344,17.681s2.524,2.538,7.342,7.136a134.446,134.446,0,0,0,22.769,15.924c10.248,5.827,23.234,11.066,38,17.911a162.218,162.218,0,0,1,23,12.828c1.93,1.4,3.989,2.6,5.88,4.23q2.885,2.363,5.83,4.785,2.8,2.7,5.666,5.472l1.433,1.392L398.6,88.9q1.351,1.55,2.713,3.121t2.742,3.154q1.276,1.743,2.559,3.5,1.255,1.72,2.523,3.458a36.324,36.324,0,0,1,2.47,3.648q2.364,3.89,4.779,7.847,2.134,4.157,4.3,8.381c5.519,11.492,9.962,24.219,13.965,37.406,4.028,13.181,7.689,26.846,12.278,40.211,4.6,13.34,10.116,26.457,17.539,38.065a39.686,39.686,0,0,0,2.853,4.276l3,4.151,1.5,2.084,1.587,1.854,3.389,3.924a85.934,85.934,0,0,0,6.981,7.121,91.611,91.611,0,0,0,7.463,6.385c10.3,8.111,21.782,14.094,33.617,19.542,11.821,5.5,24.031,10.729,35.8,17.951a120.253,120.253,0,0,1,32.352,28.526l6.581,9.227c2.016,3.406,4.125,6.768,6.041,10.232,1.73,3.565,3.642,7.01,5.219,10.674,1.512,3.7,3.253,7.277,4.55,11.087,5.669,14.993,9.772,30.555,14.09,45.619,4.275,15.081,8.972,29.7,15.334,42.832,1.677,3.2,3.124,6.6,5.033,9.548a101.8,101.8,0,0,0,5.6,8.9l3,4.206,1.412,1.98,1.68,1.968L664.9,493.7l1.669,1.956c.561.622,1.147,1.137,1.719,1.714l3.435,3.353a35.976,35.976,0,0,0,3.528,3.219l3.664,3.016a37.1,37.1,0,0,0,3.724,2.857,155.287,155.287,0,0,0,15.445,9.809c10.491,5.855,21.214,10.52,31.558,15.652,10.348,5.1,20.342,10.766,29.357,17.8a118.4,118.4,0,0,1,23.545,24.7q1.212,1.715,2.409,3.4l1.194,1.689,1.1,1.842q2.193,3.678,4.332,7.271,1.9,3.757,3.757,7.427c1.28,2.416,2.223,5.03,3.321,7.492a263.951,263.951,0,0,1,10.065,29.311c5.376,18.809,9.483,35.356,14.055,48.411a196.878,196.878,0,0,0,12.5,29.023c3.6,6.128,5.594,9.349,5.594,9.349s-2.08-3.115-5.873-9.092a181.409,181.409,0,0,1-13.34-28.63c-4.886-12.969-9.39-29.495-15.13-47.982a256.539,256.539,0,0,0-10.541-28.517c-1.126-2.363-2.105-4.88-3.374-7.207q-1.85-3.522-3.739-7.136-2.091-3.384-4.218-6.842l-1.069-1.732-1.216-1.661q-1.222-1.669-2.456-3.347c-6.537-8.65-14.144-16.859-23.019-23.33-8.808-6.612-18.591-11.918-28.888-16.743-10.3-4.855-21.128-9.3-31.97-15.069A124.391,124.391,0,0,1,664.7,502.661c-.615-.613-1.269-1.2-1.844-1.833l-1.68-1.937-3.36-3.9-1.691-1.956c-.719-.923-1.108-1.517-1.68-2.293l-3.181-4.408a107.245,107.245,0,0,1-5.948-9.346c-2.023-3.111-3.564-6.652-5.34-10.008-6.738-13.736-11.649-28.869-16.024-44.034-4.422-15.164-8.539-30.442-14.051-44.815-1.269-3.675-2.945-7.038-4.4-10.572-1.519-3.485-3.342-6.713-5-10.091-1.794-3.2-3.718-6.22-5.562-9.352l-6.4-8.917a114.256,114.256,0,0,0-30.554-27.223c-11.281-7.026-23.269-12.271-35.172-17.9-11.9-5.576-23.777-11.835-34.557-20.418a97.69,97.69,0,0,1-7.885-6.833,94.519,94.519,0,0,1-7.342-7.593l-3.371-3.951-1.769-2.091-1.573-2.2-3.135-4.4a43.278,43.278,0,0,1-2.988-4.524c-7.739-12.3-13.54-26.04-18.015-39.846-4.522-13.809-8.014-27.613-11.828-40.729-3.785-13.126-7.95-25.589-13.14-36.815q-2.043-4.129-4.046-8.184-2.23-3.8-4.425-7.528a34.217,34.217,0,0,0-2.363-3.62q-1.244-1.766-2.477-3.513-1.206-1.706-2.4-3.4-1.313-1.559-2.609-3.1t-2.588-3.075l-1.283-1.523-1.365-1.376q-2.745-2.74-5.419-5.416-2.831-2.414-5.6-4.77c-1.827-1.619-3.8-2.875-5.651-4.3a162.677,162.677,0,0,0-22.383-13.426c-14.512-7.314-27.48-13.052-37.656-19.275a129.972,129.972,0,0,1-22.479-17.007C289.789,20.336,287.344,17.681,287.344,17.681Z" transform="translate(-233.277 -17.681)" fill="#2e3238"/>
        <path id="Path_1683" data-name="Path 1683" d="M296.509,17.681l1.987,1.26c1.33.788,3.231,2.167,5.844,3.574,5.126,3.09,12.911,6.842,22.9,11.317,9.962,4.534,22.322,9.346,35.776,17.485a122.716,122.716,0,0,1,20.367,15.541c1.644,1.661,3.342,3.3,5,5.046q2.386,2.782,4.826,5.631c1.694,2.069,3.038,4.089,4.6,6.174q1.131,1.554,2.284,3.127c.743,1.091,1.43,2.3,2.152,3.455,11.939,18.361,19.477,42.348,26.615,67.168,3.642,12.405,7.363,25.09,12.292,37.256,4.929,12.139,11.006,23.8,18.7,33.936l1.4,1.953.354.484c.136.181.007.031.093.132l.2.227.79.917,3.171,3.669c1.065,1.2,2.105,2.523,3.2,3.62l3.306,3.185,3.317,3.2,3.574,2.906,3.585,2.915,3.764,2.6c10.051,6.977,21,12.249,32.191,17.38s22.68,10.254,33.718,17.261a120.643,120.643,0,0,1,30.318,27.3l6.212,8.69c1.952,3.108,3.85,6.382,5.762,9.57,1.741,3.3,3.364,6.661,5.044,9.987l4.414,10.382c5.5,14.064,9.508,28.71,13.547,42.961s8.164,28.213,13.636,41.02a139.073,139.073,0,0,0,20.213,34.047l3.128,3.666a34.4,34.4,0,0,0,3.163,3.433c2.181,2.054,4.218,4.267,6.473,6.189,2.3,1.861,4.54,3.807,6.852,5.579q3.544,2.51,7.059,5c9.547,6.284,19.5,11.026,29.239,15.667,9.744,4.623,19.316,9.184,28.252,14.655a118.107,118.107,0,0,1,24.417,19.223c.9.916,1.837,1.772,2.7,2.722.837.993,1.669,1.977,2.5,2.961,1.651,2,3.306,3.795,4.893,5.916l4.346,6.057c1.38,2.124,2.684,4.3,4,6.416a172.311,172.311,0,0,1,12.2,25.964c6.384,17.147,10.162,32.891,13.719,45.594,3.514,12.724,6.455,22.644,8.882,29.182,1.1,3.329,2.184,5.744,2.8,7.44l.986,2.538-1.065-2.486c-.668-1.661-1.826-4.028-3.035-7.3-2.606-6.437-5.955-16.194-9.726-28.83-3.85-12.577-8-28.161-14.677-44.794a164.953,164.953,0,0,0-12.493-24.912q-1.941-2.975-3.935-6.02-2.193-2.943-4.432-5.959c-1.44-1.855-3.163-3.669-4.758-5.536q-1.222-1.4-2.452-2.8c-.847-.907-1.762-1.713-2.649-2.578a113.058,113.058,0,0,0-23.941-18.089c-8.8-5.141-18.28-9.423-28.1-13.825-9.812-4.426-20.009-9-30-15.284q-3.689-2.506-7.421-5.033c-2.423-1.833-4.786-3.853-7.2-5.787C659,490,656.746,487.6,654.4,485.391a36.894,36.894,0,0,1-3.285-3.528l-3.142-3.642a145.345,145.345,0,0,1-21.511-35.733c-5.776-13.331-10.08-27.649-14.19-41.925s-8.125-28.588-13.461-42.032l-4.261-9.877c-1.608-3.13-3.174-6.324-4.815-9.408-1.784-2.915-3.485-5.852-5.315-8.761l-6.044-8.4a114.708,114.708,0,0,0-28.6-26.04c-10.552-6.8-21.786-11.912-32.988-17.157s-22.44-10.719-32.9-18.079l-3.917-2.747-3.753-3.09-3.739-3.084-3.578-3.485-3.553-3.491c-1.151-1.183-2.137-2.461-3.214-3.681l-3.153-3.7-.786-.92-.2-.23a3.775,3.775,0,0,1-.279-.359l-.368-.512-1.473-2.063a148.958,148.958,0,0,1-19.341-35.782c-4.929-12.724-8.521-25.718-12-38.219-3.453-12.516-6.816-24.6-10.852-35.809-4.007-11.167-8.647-21.663-14.162-30.457a119.555,119.555,0,0,0-37.556-39.2C348.921,45.487,336.685,40.2,326.82,35.3A209.822,209.822,0,0,1,304.19,22.9c-2.577-1.542-4.425-3.01-5.733-3.862Z" transform="translate(-209.683 -17.681)" fill="#2e3238"/>
        <path id="Path_1684" data-name="Path 1684" d="M308.939,17.681s2.62,1.131,7.528,3.246c4.89,2.183,12.149,5.125,21.071,9.987a120.855,120.855,0,0,1,30.272,22.46c2.545,2.918,5.229,5.7,7.892,9q1.844,2.488,3.739,5.046.944,1.278,1.905,2.575c.626.9,1.194,1.891,1.8,2.842q1.8,2.9,3.632,5.876c1.2,2.008,2.2,4.184,3.331,6.308,2.327,4.206,4.164,8.9,6.252,13.546,3.8,9.536,7.21,19.771,10.405,30.457s6.291,21.752,9.948,32.8c3.639,11.044,7.871,22.1,13.451,32.29,1.258,2.667,2.877,5.021,4.364,7.513l2.259,3.724,2.513,3.482,2.527,3.488,1.265,1.753,1.333,1.539q2.858,3.288,5.744,6.606a120.737,120.737,0,0,0,26.147,20.3c9.522,5.582,19.645,10.07,29.889,14.827s20.671,9.791,30.625,16.531a122.4,122.4,0,0,1,27.441,25.4l5.687,7.936c1.848,2.642,3.535,5.763,5.3,8.629a162.49,162.49,0,0,1,8.954,18.4c5.29,12.681,9.247,25.97,12.972,39.022s7.267,25.948,11.642,38.084a166.315,166.315,0,0,0,16.017,33.431,127.169,127.169,0,0,0,21.975,25.372A129.231,129.231,0,0,0,672.156,487.3c8.672,4.662,17.354,8.623,25.739,12.675a223.93,223.93,0,0,1,23.9,13.264,132.054,132.054,0,0,1,10.634,7.964c1.666,1.441,3.382,2.728,4.944,4.245q2.322,2.317,4.582,4.586c.744.766,1.516,1.48,2.223,2.281.686.828,1.373,1.646,2.048,2.465q2.032,2.442,4.01,4.825c2.595,3.405,4.725,6.747,7,9.965C765.9,563.19,771.1,576.837,774.9,588.194c3.814,11.375,6.123,20.621,7.835,26.852,1.659,6.256,2.545,9.595,2.545,9.595s-1-3.286-2.867-9.444c-1.895-6.143-4.6-15.2-8.639-26.365-4.028-11.1-9.6-24.455-18.276-37.244a121.285,121.285,0,0,0-35.3-34.3,219.051,219.051,0,0,0-23.706-12.442c-8.389-3.819-17.175-7.578-26.082-12.1a132.231,132.231,0,0,1-26.472-17.083,126.6,126.6,0,0,1-23.373-26.322,173.235,173.235,0,0,1-17.071-34.8c-4.654-12.5-8.314-25.6-12.042-38.58s-7.635-25.881-12.721-37.97a155.159,155.159,0,0,0-8.5-17.359c-1.662-2.648-3.088-5.37-4.918-7.979l-5.5-7.66a116.05,116.05,0,0,0-25.9-24.109c-9.483-6.486-19.609-11.452-29.793-16.216-10.191-4.745-20.463-9.423-30.279-15.345a126.484,126.484,0,0,1-27.4-21.859q-2.863-3.352-5.7-6.682L439.23,219,437.9,217.14l-2.634-3.709-2.609-3.7-2.338-3.948c-1.523-2.658-3.174-5.18-4.457-8-5.676-10.83-9.869-22.386-13.4-33.728-3.553-11.351-6.5-22.546-9.5-33.234s-6.205-20.8-9.769-30.2c-1.966-4.564-3.685-9.2-5.88-13.331-1.065-2.081-2.02-4.252-3.138-6.2s-2.238-3.856-3.339-5.748c-.561-.941-1.072-1.91-1.662-2.814q-.928-1.338-1.841-2.655l-3.61-5.193c-2.384-3.148-5.029-6.091-7.417-9.012a121.823,121.823,0,0,0-29.267-23.324c-8.757-5.141-15.87-8.592-20.692-11.008C311.516,18.953,308.939,17.681,308.939,17.681Z" transform="translate(-177.683 -17.681)" fill="#2e3238"/>
        <path id="Path_1685" data-name="Path 1685" d="M322.161,17.681l6.387,4.04a117.557,117.557,0,0,1,17.046,13.8c1.751,1.655,3.4,3.712,5.24,5.7q1.362,1.517,2.788,3.111c.987,1.146,1.776,2.342,2.7,3.547a133.2,133.2,0,0,1,10.913,16.7,178.6,178.6,0,0,1,9.88,21.323q1.131,2.934,2.288,5.947,1.04,3.071,2.1,6.22c1.469,4.181,2.72,8.549,4.118,12.969,5.4,17.69,10.377,37.287,18.734,55.82l1.537,3.5,1.741,3.369c1.187,2.225,2.27,4.567,3.564,6.738q1.968,3.219,3.971,6.471l1,1.625,1.112,1.514,2.23,3.038,2.241,3.056.561.766a7.028,7.028,0,0,0,.525.625L424.1,199q2.514,2.892,5.061,5.818c3.542,3.378,6.9,6.952,10.852,9.913,15.263,12.7,33.607,19.784,51.976,28.538a166.2,166.2,0,0,1,27.287,15.642A126.537,126.537,0,0,1,543.66,282.18a154.911,154.911,0,0,1,18.265,31.064c5.036,11.2,8.85,23.051,12.274,34.773,3.453,11.722,6.552,23.383,10.033,34.586A203.2,203.2,0,0,0,596.6,414.238a154.38,154.38,0,0,0,7.853,13.932q2.241,3.159,4.454,6.281l1.1,1.569c.15.211.436.641.479.668l.618.736,2.456,2.927,2.445,2.909,1.219,1.45,1.262,1.257q2.52,2.511,5.015,4.99c1.684,1.628,3.535,3.025,5.276,4.537l2.645,2.213,2.745,1.962c14.544,10.646,29.921,16.991,43.8,23.876,3.471,1.778,6.9,3.375,10.18,5.248q2.466,1.352,4.879,2.676,2.365,1.476,4.672,2.909a127.557,127.557,0,0,1,16.732,12.592c10.03,8.917,17.339,19.03,22.79,27.564a158.8,158.8,0,0,1,10.841,21.742c2.07,5.309,3.17,8.142,3.17,8.142l-3.471-7.933A170.1,170.1,0,0,0,736.3,535.574c-5.715-8.316-13.107-17.81-23.191-26.117-10.012-8.384-22.455-15.259-36.38-21.657-13.9-6.468-29.532-12.387-44.812-22.993l-2.881-1.956-2.792-2.225c-1.852-1.53-3.778-2.909-5.6-4.595q-2.718-2.593-5.472-5.217l-1.372-1.321-1.244-1.416-2.495-2.845-2.506-2.857-.629-.714a11.136,11.136,0,0,1-.69-.892l-1.187-1.612q-2.354-3.26-4.743-6.544a159.9,159.9,0,0,1-8.389-14.533c-10.6-20.332-16.632-44.273-23.43-67.315-3.414-11.559-7.145-22.978-11.974-33.608a145.923,145.923,0,0,0-17.325-29.277A120.091,120.091,0,0,0,516.212,265.8c-8.343-6.152-17.3-10.9-26.376-15.253-18.083-8.678-36.874-16.354-52.826-29.863-4.05-3.114-7.785-7.112-11.492-10.787q-2.509-2.966-5-5.9l-1.237-1.474c-.239-.3-.336-.362-.693-.858l-.579-.822-2.3-3.274-2.284-3.255-1.137-1.622-1.026-1.732q-2.032-3.467-4.039-6.891c-1.308-2.305-2.406-4.776-3.6-7.13l-1.744-3.559-1.537-3.669c-8.325-19.471-12.971-39.38-18.044-57.1-5.026-17.745-10.416-33.6-17-46.363a134,134,0,0,0-10.259-16.881c-.865-1.214-1.7-2.556-2.545-3.59-.911-1.088-1.794-2.149-2.659-3.188-1.759-2.042-3.331-4.15-5.018-5.864A132.208,132.208,0,0,0,328.388,22.1Z" transform="translate(-143.644 -17.681)" fill="#2e3238"/>
        <path id="Path_1686" data-name="Path 1686" d="M332.014,17.681l5.133,5.2a127.864,127.864,0,0,1,12.986,16.869q1.877,3.016,3.95,6.348,1.855,3.522,3.875,7.369c.34.641.679,1.291,1.026,1.943.3.684.615,1.373.926,2.069l1.909,4.258c1.358,2.86,2.516,5.974,3.76,9.168,4.976,12.782,9.34,27.885,14.155,44.126,2.509,8.056,5.072,16.485,8.353,24.759,1.5,4.23,3.417,8.252,5.229,12.427.9,2.094,2.03,4.016,3.045,6.051,1.072,1.986,2.012,4.117,3.256,5.984q1.769,2.883,3.567,5.8l.9,1.462,1,1.361,2.009,2.728,2.02,2.75,1.008,1.376.254.346c-.075-.083.143.162.2.227l.568.65q2.279,2.584,4.575,5.2a51.132,51.132,0,0,0,4.74,4.8c1.634,1.484,3.135,3.151,4.876,4.537s3.471,2.8,5.215,4.212c1.719,1.462,3.635,2.566,5.454,3.878,14.73,10.217,31.687,16.393,48.555,24.774a170.519,170.519,0,0,1,24.939,14.962,127.874,127.874,0,0,1,11.578,10.051,61.7,61.7,0,0,1,5.444,5.665l5.3,6.174A159.91,159.91,0,0,1,548.8,293.393a269.274,269.274,0,0,1,11.738,31.778c6.588,21.494,11.427,43.1,19.448,61.868a133.389,133.389,0,0,0,30.883,46.366,57.761,57.761,0,0,0,4.679,4.138c1.6,1.287,3.106,2.734,4.75,3.878,3.271,2.308,6.427,4.745,9.751,6.664a211.093,211.093,0,0,0,19.427,10.646c6.366,3.117,12.528,5.956,18.337,8.923,2.9,1.5,5.733,2.915,8.443,4.488,2.72,1.511,5.362,2.976,7.853,4.623,2.506,1.582,4.951,3.062,7.192,4.791,1.137.825,2.248,1.64,3.346,2.434q.82.6,1.623,1.183c.511.438,1.022.874,1.523,1.3q3.019,2.584,5.783,4.941,2.606,2.635,4.968,5.021a126.464,126.464,0,0,1,13.247,16.556c2.659,4.27,4.078,6.551,4.078,6.551l-4.328-6.25a135.6,135.6,0,0,0-13.761-15.627q-2.4-2.23-5.047-4.705-2.8-2.193-5.851-4.583c-.507-.4-1.019-.8-1.537-1.2q-.815-.542-1.637-1.088l-3.363-2.232c-2.256-1.591-4.715-2.93-7.231-4.365-10.083-5.738-21.957-10.631-34.875-16.5A210.435,210.435,0,0,1,628.3,452.77c-3.435-1.864-6.748-4.276-10.173-6.563-1.719-1.134-3.324-2.581-5.008-3.875a60.37,60.37,0,0,1-4.979-4.187q-2.44-2.317-4.9-4.662L602,432.3l-1.115-1.269-2.241-2.55-2.259-2.563-1.133-1.291-.279-.322a4.513,4.513,0,0,1-.354-.457l-.533-.723q-2.134-2.906-4.3-5.846a65.63,65.63,0,0,1-4.071-6.207c-1.269-2.176-2.688-4.242-3.853-6.542s-2.348-4.6-3.531-6.912c-1.223-2.29-2.152-4.8-3.249-7.2a275.82,275.82,0,0,1-10.87-30.632c-3.217-10.511-6.109-21.252-9.365-31.769a260.147,260.147,0,0,0-11.4-30.586,150.984,150.984,0,0,0-16.3-26.791l-4.786-5.576a56.9,56.9,0,0,0-5.115-5.367,122.081,122.081,0,0,0-10.916-9.567,165.574,165.574,0,0,0-24-14.533c-8.257-4.144-16.682-7.844-24.935-11.943a171.135,171.135,0,0,1-24.038-13.846c-1.887-1.4-3.853-2.578-5.651-4.135q-2.729-2.262-5.426-4.5c-1.8-1.487-3.471-3.323-5.186-4.972a58.251,58.251,0,0,1-4.861-5.187q-2.252-2.685-4.479-5.343l-.558-.662-.354-.435-.261-.371-1.033-1.477-2.066-2.943-2.045-2.918-1.019-1.456-.911-1.557q-1.817-3.108-3.614-6.174c-1.258-1.992-2.2-4.227-3.278-6.327-1.012-2.149-2.148-4.19-3.038-6.379-1.794-4.365-3.689-8.586-5.151-12.96-3.206-8.6-5.637-17.209-8.017-25.412-4.615-16.455-8.45-31.591-12.954-44.435-1.13-3.206-2.177-6.342-3.428-9.211q-.89-2.184-1.752-4.288-.434-1.053-.851-2.087-.483-.989-.947-1.959l-3.6-7.452q-1.936-3.366-3.682-6.416c-.586-1.015-1.158-2.008-1.712-2.967q-.933-1.356-1.816-2.63-1.748-2.566-3.271-4.8a46.909,46.909,0,0,0-2.938-3.942q-1.4-1.761-2.534-3.2Z" transform="translate(-118.278 -17.681)" fill="#2e3238"/>
        <path id="Path_1687" data-name="Path 1687" d="M339.741,17.681s1.38,2.06,3.968,5.928c.629.984,1.415,2,2.127,3.274s1.508,2.655,2.356,4.15c.829,1.517,1.826,3.075,2.7,4.88s1.784,3.737,2.756,5.769a266.5,266.5,0,0,1,11.692,30.935c3.946,12.261,7.806,26.353,12.854,41.134,5.1,14.692,11.606,30.2,21.386,43.568q1.834,2.488,3.7,5.006l.465.631.114.159c-.114-.138.043.046.054.052l.257.294,1.044,1.183,2.091,2.379c1.412,1.542,2.785,3.289,4.254,4.693l4.432,4.187c.751.69,1.462,1.435,2.248,2.084l2.406,1.91c1.616,1.269,3.2,2.612,4.84,3.862,3.406,2.259,6.72,4.8,10.33,6.774,14.151,8.62,30,14.331,45.706,22.469A145.28,145.28,0,0,1,504.607,227.5c7.517,5.622,14.269,12.838,20.646,20.47l4.393,6.137,2.145,3.013,2.023,3.372c1.326,2.256,2.731,4.472,3.982,6.771l3.524,7.007A224.461,224.461,0,0,1,552.694,303.7c6.4,20,10.87,40.205,17.636,58.232,6.477,18.22,15.5,33.82,26.1,46.2,10.441,12.4,22.633,20.722,34.157,27.217,11.6,6.431,22.662,11.342,32.281,16.378a170.663,170.663,0,0,1,24.278,14.9q2.4,1.858,4.525,3.519c1.419,1.107,2.634,2.37,3.825,3.424q1.764,1.623,3.256,3c1,.907,1.8,1.91,2.577,2.713,3.035,3.3,4.65,5.061,4.65,5.061l-4.861-4.718c-.808-.742-1.648-1.68-2.681-2.511s-2.148-1.76-3.364-2.75c-1.226-.966-2.484-2.118-3.932-3.13s-2.981-2.1-4.6-3.243a164.582,164.582,0,0,0-24.51-13.463c-9.719-4.463-20.935-8.764-32.838-15-11.853-6.235-24.6-14.343-35.883-27.061A144.738,144.738,0,0,1,565.3,365c-7.149-18.6-12.017-38.865-18.269-58.352a215.227,215.227,0,0,0-11.02-28.232l-3.356-6.624c-1.176-2.13-2.456-4.12-3.675-6.189l-1.844-3.084L525,259.524l-4.214-5.861c-5.994-7.2-12.307-14.045-19.423-19.416A139.646,139.646,0,0,0,479.2,220.208c-15.291-7.982-31.2-14.171-45.8-23.281-3.7-2.106-7.156-4.813-10.666-7.228-1.7-1.343-3.364-2.756-5.022-4.138l-2.474-2.084c-.819-.711-1.587-1.548-2.373-2.314q-2.343-2.345-4.665-4.669c-1.526-1.554-2.8-3.268-4.2-4.88l-2.045-2.443-1.019-1.217-.254-.3-.2-.248-.118-.169-.475-.677q-1.893-2.69-3.764-5.352c-9.933-14.312-16.324-30.592-21.211-45.683-4.9-15.164-8.271-29.455-11.778-41.839a268.821,268.821,0,0,0-10.566-31.233q-1.351-3.1-2.545-5.861c-.8-1.845-1.7-3.439-2.452-5q-1.169-2.317-2.159-4.285c-.651-1.318-1.394-2.391-1.977-3.418C341.028,19.839,339.741,17.681,339.741,17.681Z" transform="translate(-98.386 -17.681)" fill="#2e3238"/>
        <path id="Path_1688" data-name="Path 1688" d="M346.3,17.681s1.065,2.149,3.07,6.18c1.952,4.052,4.668,10.192,7.635,18.276,2.931,8.111,6.087,18.187,9.587,29.749,1.759,5.778,3.639,11.909,5.74,18.285,1.047,3.191,2.205,6.407,3.328,9.732,1.265,3.234,2.434,6.627,3.857,9.926,5.53,13.239,12.8,26.935,22.69,38.347a95.221,95.221,0,0,0,7.878,8.439q2.043,1.94,4.1,3.9c1.451,1.214,2.956,2.37,4.443,3.568a132.928,132.928,0,0,0,19.205,12.577c13.572,7.4,28.427,12.9,43.129,20.8a126.845,126.845,0,0,1,40.816,33.4l4.129,5.769,2.012,2.82c.676.938,1.28,2.075,1.92,3.1l3.782,6.333c1.2,2.143,2.23,4.371,3.353,6.554,2.316,4.3,4.05,8.985,6.034,13.481,1.687,4.656,3.546,9.23,4.99,13.95,6.209,18.726,10.516,37.661,16.324,54.952,5.733,17.3,13.157,32.845,22.322,45.352l1.666,2.385,1.78,2.155q1.839,2.225,3.657,4.417c1.226,1.383,2.484,2.606,3.71,3.9,1.233,1.272,2.416,2.6,3.739,3.721a101.753,101.753,0,0,0,7.742,6.658c2.566,2.133,5.233,3.924,7.832,5.717,2.588,1.812,5.251,3.3,7.789,4.914,2.609,1.438,5.133,2.906,7.638,4.236,5,2.679,9.812,5.076,14.348,7.317,9.076,4.466,16.982,8.488,23.345,12.225a139.122,139.122,0,0,1,14.344,9.729c3.16,2.553,4.847,3.914,4.847,3.914s-1.744-1.226-5.018-3.531a160.75,160.75,0,0,0-14.662-8.672c-6.452-3.35-14.433-6.9-23.659-10.842-9.193-4.022-19.72-8.325-30.611-15.158-2.713-1.729-5.5-3.458-8.207-5.548a104.529,104.529,0,0,1-8.193-6.569,51.535,51.535,0,0,1-4.032-3.783c-1.319-1.333-2.713-2.645-4-4.034q-1.855-2.143-3.732-4.31l-1.952-2.256-1.791-2.434c-9.819-12.77-17.972-28.94-24.009-46.673-6.116-17.7-10.8-36.582-16.835-54.741-1.43-4.6-3.228-8.957-4.865-13.438-1.916-4.27-3.585-8.758-5.794-12.8-1.065-2.045-2.066-4.19-3.181-6.167l-3.478-5.769c-.6-.956-1.1-1.943-1.78-2.878l-2.023-2.808-3.946-5.487a120.841,120.841,0,0,0-38.729-31.944c-14.251-7.706-29.067-13.665-42.961-21.461a130.713,130.713,0,0,1-19.777-13.484c-1.533-1.3-3.07-2.55-4.572-3.875q-2.182-2.17-4.336-4.319a101.259,101.259,0,0,1-7.907-8.871c-10.3-12.378-17.4-26.862-22.74-40.7-5.365-13.874-8.739-27.294-11.9-39-3.1-11.756-5.88-21.926-8.511-30.145-2.706-8.175-5.015-14.487-6.806-18.68C347.268,19.906,346.3,17.681,346.3,17.681Z" transform="translate(-81.493 -17.681)" fill="#2e3238"/>
        <path id="Path_1689" data-name="Path 1689" d="M352.13,17.681s.833,2.143,2.4,6.155c1.508,4.046,3.7,10.03,6.119,17.816,2.473,7.758,5.243,17.3,8.711,28.042,3.507,10.7,7.685,22.677,13.622,34.611a144.042,144.042,0,0,0,10.355,17.531c.933,1.474,2.055,2.759,3.074,4.172l1.576,2.091.726.959.876.993c2.352,2.587,4.668,5.5,7.156,7.933A114.573,114.573,0,0,0,422.9,151.413q2.2,1.485,4.422,2.989,2.284,1.352,4.6,2.722c3.045,1.894,6.269,3.473,9.479,5.159,12.907,6.578,26.908,11.863,40.673,19.486a127.109,127.109,0,0,1,38.239,32.113l3.789,5.3a63.952,63.952,0,0,1,3.714,5.5,134.776,134.776,0,0,1,6.795,12.065c4.3,8.129,7.564,16.921,10.705,25.6,5.994,17.537,10.13,35.383,15.3,51.826,5.129,16.446,11.256,31.653,19.127,44.239,1.919,3.182,4.118,6,6.116,8.963l.761,1.094.783.969,1.677,2.048c1.126,1.318,2.191,2.8,3.324,3.97A117.968,117.968,0,0,0,606.11,388.6a166.765,166.765,0,0,0,27.158,17.359c8.428,4.417,15.917,7.945,22.008,11.1,6.109,3.084,10.8,5.873,13.98,7.8,3.149,2,4.829,3.062,4.829,3.062s-1.727-.926-4.968-2.661c-3.256-1.7-8.085-3.976-14.276-6.731-6.18-2.777-13.776-5.843-22.418-9.769-8.611-3.973-18.366-8.776-28.213-16.212-2.434-1.9-4.947-3.8-7.353-6.045-2.484-2.078-4.858-4.577-7.31-7.056-1.258-1.22-2.295-2.578-3.46-3.89l-1.716-2-.912-1.073-.819-1.116c-2.145-3.013-4.5-5.9-6.566-9.159-8.489-12.89-15.245-28.618-20.631-45.367-5.426-16.761-9.9-34.372-15.724-51.357-3.07-8.362-6.227-16.773-10.326-24.425-1.88-4.016-4.164-7.489-6.316-11.133a57.978,57.978,0,0,0-3.635-5.328l-3.8-5.285-3.921-4.567a53.807,53.807,0,0,0-4.114-4.558,103.725,103.725,0,0,0-8.825-8.142c-6-5.223-12.607-9.248-19.17-13.16-13.326-7.424-27.148-13.123-40.3-20.044-13.179-6.894-25.418-15.4-35.673-26.359-2.566-2.655-4.733-5.533-7.067-8.227l-.854-1.021c-.422-.533-.579-.794-.879-1.2l-1.6-2.229c-1.044-1.5-2.159-2.9-3.1-4.472A152.4,152.4,0,0,1,379.9,106.711c-5.837-12.537-9.6-24.97-12.725-35.944-3.085-11.011-5.49-20.685-7.671-28.566s-3.953-14.033-5.283-18.184C352.856,19.885,352.13,17.681,352.13,17.681Z" transform="translate(-66.491 -17.681)" fill="#2e3238"/>
        <path id="Path_1690" data-name="Path 1690" d="M357.511,17.681s.69,2.069,1.98,5.944c1.251,3.9,3.113,9.607,5.329,16.93,2.263,7.3,4.986,16.182,8.611,26.031,1.873,4.883,3.878,10.067,6.341,15.259a151.233,151.233,0,0,0,8.321,15.8,121.73,121.73,0,0,0,10.791,15.195q3.2,3.6,6.5,7.323,3.431,3.232,6.963,6.569c9.8,8.528,21.318,15.066,33.574,20.921,12.242,5.938,25.4,10.952,38.235,18.505a124.13,124.13,0,0,1,35.723,30.617c2.355,3.369,4.779,6.517,7.066,10.079l3.342,5.585,1.662,2.793,1.469,2.9,2.906,5.8c.983,1.919,1.744,3.985,2.627,5.962.833,2.011,1.744,3.976,2.506,6.017l2.248,6.128c5.944,16.351,9.869,33.127,14.53,48.721,4.6,15.618,9.733,30.283,16.417,42.78q2.654,4.543,5.222,8.963,2.858,4.124,5.63,8.12c.8,1.26,1.966,2.529,2.913,3.777,1,1.241,1.984,2.526,3,3.6q1.506,1.687,2.985,3.338,1.56,1.568,3.085,3.108a114.723,114.723,0,0,0,12.392,10.6c4.079,3.136,8.15,5.689,11.978,8.077,7.724,4.619,14.694,8.1,20.424,10.977,5.748,2.829,10.23,5.2,13.286,6.8,3.046,1.646,4.665,2.523,4.665,2.523s-1.662-.736-4.782-2.112c-3.138-1.321-7.739-3.261-13.586-5.729-5.844-2.517-12.961-5.539-20.96-9.711a119.541,119.541,0,0,1-25.586-17.708q-1.624-1.517-3.285-3.072-1.614-1.674-3.253-3.381c-1.133-1.122-2.12-2.333-3.16-3.531-1.037-1.263-2.073-2.274-3.135-3.77q-2.981-4.055-6.059-8.246-2.777-4.52-5.64-9.175c-7.249-12.8-12.939-27.885-17.747-43.675-4.879-15.774-9.151-32.281-14.88-48.019l-2.191-5.885c-.736-1.959-1.619-3.813-2.424-5.729-.843-1.882-1.576-3.865-2.524-5.671l-2.777-5.472-1.391-2.734-1.54-2.541-3.06-5.095c-2.17-3.369-4.707-6.624-7.038-9.947l-3.678-4.282c-1.283-1.432-2.452-3.038-3.832-4.331l-4.057-3.973-2.03-1.986-2.145-1.778-4.3-3.54c-1.416-1.2-2.971-2.137-4.447-3.219-1.5-1.021-2.96-2.143-4.5-3.081l-4.618-2.8c-12.346-7.317-25.3-12.743-37.681-18.962-12.4-6.128-24.224-13.383-34.275-22.613q-3.694-3.688-7.274-7.271-3.222-3.844-6.341-7.571a128.918,128.918,0,0,1-10.852-16.418c-6.327-11.093-10.555-22.469-13.9-32.6-3.271-10.192-5.648-19.26-7.621-26.7-1.941-7.458-3.46-13.316-4.5-17.31C358.086,19.8,357.511,17.681,357.511,17.681Z" transform="translate(-52.639 -17.681)" fill="#2e3238"/>
        <path id="Path_1691" data-name="Path 1691" d="M362.671,17.681s.618,1.95,1.776,5.6c1.183,3.639,2.917,8.975,5.122,15.768,2.331,6.7,5.108,14.9,9.136,23.668,1.877,4.494,4.325,8.9,6.806,13.6,1.3,2.3,2.781,4.512,4.2,6.863.736,1.153,1.423,2.379,2.22,3.5q1.233,1.651,2.488,3.338t2.534,3.4l1.226,1.649,1.441,1.615c1.941,2.149,3.892,4.411,5.916,6.578l6.348,5.959c2.223,1.91,4.6,3.691,6.938,5.582,9.6,7.173,20.549,12.81,32.13,18.1,11.563,5.337,23.856,10.349,35.812,17.623a121.349,121.349,0,0,1,33.16,29l3.428,4.791c1.1,1.576,2.234,3.065,3.31,4.711,2.052,3.5,4.264,6.922,6.152,10.508a186.807,186.807,0,0,1,9.876,22.239c5.719,15.232,9.64,30.9,13.829,45.631,4.15,14.76,8.582,28.7,14.208,40.938,1.487,2.983,2.877,6,4.382,8.853q2.4,4.147,4.733,8.16c1.68,2.55,3.41,4.978,5.069,7.409l1.24,1.805,1.316,1.591,2.72,3.289q1.346,1.628,2.667,3.219c.89,1.024,1.83,1.873,2.731,2.808,1.826,1.8,3.546,3.657,5.347,5.312a125.9,125.9,0,0,0,10.673,8.669,161.982,161.982,0,0,0,18.573,11.648c10.62,5.7,16.767,8.794,16.767,8.794l-4.515-1.855c-2.942-1.214-7.267-2.973-12.711-5.478a159.177,159.177,0,0,1-19.234-10.465A124.192,124.192,0,0,1,599.215,354c-1.938-1.563-3.8-3.448-5.773-5.236-.965-.929-2.005-1.809-2.938-2.8l-2.763-3.087q-1.394-1.559-2.82-3.145l-1.49-1.68-1.348-1.806c-1.794-2.431-3.667-4.868-5.5-7.437l-5.136-8.3c-1.633-2.906-3.149-5.984-4.765-9.046-6.126-12.507-11.056-26.76-15.388-41.581-4.379-14.809-8.607-30.089-14.115-44.726a178.093,178.093,0,0,0-9.5-21.136c-1.787-3.347-3.8-6.391-5.676-9.622-2.1-3.056-4.536-6.318-6.548-9.159a115.288,115.288,0,0,0-31.33-27.689c-11.481-7.032-23.477-12.412-35.1-17.994-11.627-5.518-22.812-11.8-32.627-19.609-2.406-2.057-4.815-3.979-7.11-6.072q-3.34-3.361-6.577-6.621c-1.987-2.3-3.85-4.629-5.726-6.882l-1.39-1.683-1.344-1.928q-1.271-1.848-2.516-3.654t-2.463-3.574c-.79-1.2-1.462-2.5-2.184-3.727-1.394-2.5-2.856-4.843-4.075-7.3-2.352-5-4.654-9.668-6.366-14.361-3.717-9.2-6.162-17.629-8.218-24.514-1.966-6.934-3.349-12.442-4.3-16.191Z" transform="translate(-39.355 -17.681)" fill="#2e3238"/>
        <path id="Path_1692" data-name="Path 1692" d="M367.807,17.681s.618,1.8,1.78,5.159c.561,1.692,1.3,3.758,2.205,6.152s1.894,5.174,3.138,8.2a175.492,175.492,0,0,0,9.88,21.065q1.651,2.842,3.414,5.867,1.909,2.86,3.932,5.876c1.323,2.032,2.9,3.868,4.379,5.889.754.941,1.519,2.115,2.288,2.9.847.947,1.709,1.907,2.574,2.872s1.744,1.95,2.631,2.937l1.333,1.49,1.408,1.309q2.826,2.621,5.751,5.346,3.11,2.451,6.33,4.984c2.141,1.68,4.475,3.068,6.752,4.65,9.272,5.99,19.634,10.805,30.479,15.707,10.831,4.923,22.269,9.8,33.349,16.816,2.756,1.781,5.465,3.737,8.214,5.613q3.952,3.219,7.932,6.453c2.506,2.434,5.043,4.837,7.528,7.323l7.127,8.267,6.2,8.693c1.969,3.188,3.9,6.48,5.833,9.717q2.536,5.067,5.065,10.113c1.469,3.5,3.006,6.955,4.4,10.465,5.519,14.113,9.336,28.695,13.2,42.492,3.846,13.822,7.631,27.021,12.328,38.838,1.244,2.9,2.331,5.87,3.649,8.6s2.631,5.416,3.914,8.059q2.155,3.766,4.239,7.4l1.036,1.815,1.147,1.665c.762,1.11,1.519,2.207,2.263,3.289s1.487,2.167,2.216,3.231c.608.981,1.555,1.983,2.305,2.958,1.6,1.91,3.1,3.973,4.672,5.637q2.348,2.552,4.575,4.969,2.375,2.239,4.6,4.347a124.939,124.939,0,0,0,16.532,12.592c2.373,1.588,4.554,2.863,6.438,4,1.88,1.159,3.5,2.094,4.826,2.811,2.638,1.477,4.046,2.268,4.046,2.268l-4.175-1.861c-1.369-.589-3.042-1.358-4.99-2.333-1.966-.932-4.214-2.038-6.67-3.467a121.7,121.7,0,0,1-17.315-11.516q-2.38-1.986-4.9-4.1-2.434-2.345-5-4.825c-1.748-1.631-3.235-3.559-4.918-5.4-.829-.993-1.648-1.753-2.513-2.967q-1.185-1.586-2.4-3.209t-2.452-3.283l-1.244-1.671-1.14-1.812q-2.284-3.66-4.654-7.449-2.1-4.028-4.282-8.194c-1.433-2.786-2.634-5.8-3.989-8.764-5.147-12.035-9.379-25.415-13.383-39.2-4.028-13.782-8.135-27.916-13.429-41.443-1.355-3.353-2.838-6.627-4.254-9.962q-2.418-4.759-4.843-9.542-2.681-4.428-5.376-8.877l-6.237-8.653-6.484-7.581q-3.539-3.485-7.067-6.958-3.753-3.1-7.488-6.174c-2.62-1.805-5.186-3.691-7.821-5.423-10.609-6.759-21.7-11.979-32.524-17.114-10.82-5.1-21.318-10.5-30.761-17.056-2.327-1.726-4.693-3.252-6.881-5.082q-3.265-2.773-6.427-5.459-3-3.044-5.9-5.987L402.772,89.7l-1.287-1.557q-1.276-1.554-2.531-3.071a122.868,122.868,0,0,1-16.092-25.151,183.5,183.5,0,0,1-9.04-22.058c-1.122-3.13-1.991-6-2.724-8.5-.765-2.486-1.369-4.616-1.834-6.358Z" transform="translate(-26.132 -17.681)" fill="#2e3238"/>
        <path id="Path_1693" data-name="Path 1693" d="M373.113,17.681s.658,1.609,1.9,4.626,3.21,7.314,5.823,12.691A145.58,145.58,0,0,0,391.6,53.089c1.151,1.618,2.313,3.32,3.639,4.92l1.966,2.486.5.628.125.159c-.054-.061.064.067.086.1l.272.3,1.1,1.2q2.209,2.437,4.522,5l1.165,1.291,1.23,1.143q1.239,1.145,2.506,2.317a118.989,118.989,0,0,0,10.952,9.024l6.123,4.074c2.052,1.419,4.286,2.529,6.463,3.838,8.832,4.987,18.533,9.181,28.61,13.739s20.624,9.349,30.79,16.13a125.5,125.5,0,0,1,14.813,11.5c2.3,2.284,4.7,4.42,6.931,6.842l6.605,7.666,5.744,8.056c1.88,2.789,3.628,5.956,5.433,8.917a173.086,173.086,0,0,1,9.043,18.895c5.329,12.945,9.075,26.408,12.661,39.23,3.574,12.841,6.873,25.2,10.784,36.453,1.026,2.774,1.9,5.619,3.013,8.234q1.619,3.964,3.2,7.8c2.366,4.9,4.511,9.785,7.106,14q.928,1.623,1.837,3.212l.9,1.582,1,1.453q1.978,2.906,3.864,5.677c1.2,1.907,2.545,3.5,3.857,5.211,1.28,1.72,2.6,3.173,3.86,4.638a119.5,119.5,0,0,0,14.187,13.7c4.214,3.329,7.6,5.833,9.958,7.421s3.628,2.425,3.628,2.425l-3.774-2.026a108.755,108.755,0,0,1-25.532-19.241c-1.38-1.41-2.838-2.842-4.178-4.429-1.344-1.548-2.863-3.145-4.2-5.006a114.827,114.827,0,0,1-8.3-11.814,159.793,159.793,0,0,1-7.867-14.064q-1.737-3.89-3.531-7.906c-1.222-2.664-2.191-5.53-3.317-8.347-4.307-11.394-8.021-23.815-11.728-36.545A380.743,380.743,0,0,0,534.8,184.935a164.688,164.688,0,0,0-8.654-17.831c-1.694-2.722-3.213-5.508-5.044-8.206l-5.78-8.01-6-7.014c-2.084-2.305-4.346-4.328-6.505-6.508a119.73,119.73,0,0,0-14.012-11.041c-9.7-6.514-19.874-11.615-29.857-16.363a302.354,302.354,0,0,1-28.681-14.947c-2.213-1.441-4.457-2.67-6.552-4.227q-3.147-2.29-6.2-4.5c-3.885-3.357-7.717-6.385-11.066-10.048A105.992,105.992,0,0,1,397.24,65.73l-1.04-1.29-.257-.319-.172-.221-.125-.172-.482-.69c-.636-.913-1.269-1.815-1.887-2.7-1.272-1.744-2.381-3.58-3.474-5.325a153.192,153.192,0,0,1-10.023-19.217c-2.4-5.6-4.007-10.189-5.075-13.3C373.663,19.355,373.113,17.681,373.113,17.681Z" transform="translate(-12.472 -17.681)" fill="#2e3238"/>
        <path id="Path_1694" data-name="Path 1694" d="M378.8,17.681l2.137,3.939c1.333,2.627,3.578,6.2,6.4,10.723a117.966,117.966,0,0,0,11.427,14.836,86.7,86.7,0,0,0,7.874,7.991q2.129,1.94,4.372,3.976,2.365,1.835,4.84,3.749a139.182,139.182,0,0,0,22.512,13.638c8.271,4.147,17.236,7.863,26.5,12.1,9.243,4.261,18.873,8.972,28.095,15.462l3.471,2.406,3.356,2.725a72.369,72.369,0,0,1,6.609,5.738l3.2,3.1a33.677,33.677,0,0,1,3.11,3.249l6.069,7.038,5.265,7.387a38.645,38.645,0,0,1,2.541,3.948l2.47,4.138a93.793,93.793,0,0,1,4.532,8.467l2.138,4.276,1.891,4.426c5.1,11.74,8.789,24.014,12.135,35.8,3.32,11.8,6.244,23.22,9.5,33.765a219.157,219.157,0,0,0,10.7,28.682q1.5,3.154,2.942,6.171,1.609,2.874,3.146,5.606a100.536,100.536,0,0,0,6.234,9.975,95.986,95.986,0,0,0,6.073,8.2c1.934,2.5,3.9,4.432,5.583,6.382,3.546,3.6,6.359,6.465,8.411,8.16,2.012,1.775,3.088,2.722,3.088,2.722s-1.14-.818-3.271-2.354a93.715,93.715,0,0,1-8.989-7.289,111.853,111.853,0,0,1-12.611-13.76,99.824,99.824,0,0,1-6.927-9.656c-1.147-1.784-2.327-3.62-3.489-5.542q-1.6-3.012-3.274-6.158c-.554-1.058-1.115-2.118-1.68-3.194q-.761-1.674-1.537-3.387c-1.015-2.293-2.134-4.586-3.121-7-1.93-4.868-3.9-9.929-5.647-15.256-3.61-10.6-6.917-21.975-10.348-33.6a307.168,307.168,0,0,0-12.264-34.5l-1.823-4.206-2.055-4.037a87.087,87.087,0,0,0-4.275-7.881l-2.27-3.767a34.725,34.725,0,0,0-2.431-3.734l-5.3-7.345-5.49-6.422a30.279,30.279,0,0,0-2.917-3.09l-3.006-2.946a66.8,66.8,0,0,0-6.219-5.484l-3.167-2.618L490,110.9a189.566,189.566,0,0,0-27.073-15.63c-9.118-4.371-18.044-8.6-26.361-13.19-4.179-2.232-8.153-4.73-11.971-7.2-1.9-1.257-3.7-2.679-5.5-3.973l-2.659-1.959q-1.265-1.081-2.5-2.143-2.472-2.129-4.836-4.172c-1.519-1.481-2.97-3-4.382-4.472a93.2,93.2,0,0,1-7.531-8.776A125.463,125.463,0,0,1,386.369,33.3c-2.652-4.8-4.557-8.706-5.719-11.449C379.442,19.131,378.8,17.681,378.8,17.681Z" transform="translate(2.173 -17.681)" fill="#2e3238"/>
        <path id="Path_1695" data-name="Path 1695" d="M385.143,17.681l2.323,3.148c.754,1.033,1.683,2.311,2.86,3.688q.868,1.053,1.859,2.259a27.968,27.968,0,0,0,2.152,2.455c1.58,1.692,3.332,3.565,5.233,5.6,1.937,1.986,4.161,3.816,6.441,5.938a133.8,133.8,0,0,0,16.542,11.982A220.833,220.833,0,0,0,443.534,63.48c7.581,3.482,15.724,6.738,24.063,10.784,8.318,4.059,16.954,8.522,25.192,14.619A130.558,130.558,0,0,1,515.781,111.1l4.843,6.8a79.6,79.6,0,0,1,4.561,7.191,155.552,155.552,0,0,1,8.035,15.3c4.793,10.487,8.289,21.5,11.477,32.094,3.174,10.628,5.737,21,8.464,30.666,2.642,9.714,5.54,18.607,8.418,26.733a193.075,193.075,0,0,0,9.408,21.087c1.673,2.924,3.128,5.781,4.672,8.224q2.381,3.619,4.361,6.624c1.276,2.06,2.642,3.611,3.724,5.138,1.087,1.511,2.08,2.685,2.885,3.639,1.609,1.931,2.466,2.958,2.466,2.958l-2.695-2.63c-.886-.855-1.98-1.91-3.178-3.265a60.736,60.736,0,0,1-4.1-4.724c-1.469-1.876-3.089-3.957-4.854-6.226-1.748-2.3-3.356-5.092-5.233-7.921-.461-.72-.926-1.45-1.4-2.192-.422-.785-.858-1.582-1.3-2.388q-1.319-2.432-2.713-5c-.979-1.68-1.769-3.556-2.638-5.438s-1.744-3.822-2.645-5.8c-3.306-8.071-6.673-17.013-9.594-26.7-2.938-9.607-6.037-19.741-9.24-30.221a271.307,271.307,0,0,0-11.563-30.748,147.163,147.163,0,0,0-7.617-14.275,69.927,69.927,0,0,0-4.332-6.744l-4.686-6.5a124.459,124.459,0,0,0-21.589-21.2,171.724,171.724,0,0,0-24.131-14.738L441.865,69.09a186.083,186.083,0,0,1-20.95-12.222l-4.55-3.369a46.829,46.829,0,0,1-4.264-3.366q-2.016-1.77-3.921-3.455c-.636-.561-1.258-1.113-1.877-1.655q-.879-.91-1.73-1.787c-2.23-2.4-4.447-4.478-6.23-6.689q-2.649-3.352-4.851-6.137c-1.5-1.784-2.674-3.752-3.724-5.257-1.072-1.536-1.891-2.918-2.563-4.043Z" transform="translate(18.498 -17.681)" fill="#2e3238"/>
        <path id="Path_1696" data-name="Path 1696" d="M392.516,17.681l2.423,2.192c.794.714,1.769,1.6,2.913,2.633L399.7,24.17q1.029.8,2.184,1.692,2.295,1.775,5.072,3.918,2.874,1.913,6.2,4.129c2.216,1.45,4.686,2.737,7.217,4.23,2.563,1.435,5.326,2.765,8.16,4.246,5.769,2.74,12.067,5.5,18.8,8.393s13.869,5.913,21.132,9.677a133.572,133.572,0,0,1,21.815,13.69q2.627,2.175,5.272,4.362c1.741,1.5,3.367,3.231,5.065,4.843l2.52,2.468c.811.868,1.576,1.806,2.373,2.707l4.808,5.6,4.171,5.833c.69.984,1.394,1.919,2.073,2.946l1.969,3.255c1.283,2.186,2.674,4.307,3.85,6.535q1.716,3.37,3.424,6.716A205.4,205.4,0,0,1,536.558,147.2c2.949,9.257,5.333,18.368,7.6,26.929s4.436,16.6,6.584,23.95c1.162,3.617,2.2,7.136,3.332,10.4,1.169,3.225,2.18,6.373,3.317,9.2,1.158,2.82,2.238,5.462,3.238,7.9,1.122,2.357,2.152,4.528,3.085,6.483q.7,1.467,1.33,2.783c.458.831.894,1.612,1.3,2.339.811,1.459,1.5,2.7,2.059,3.706,1.122,2.017,1.719,3.093,1.719,3.093s-.69-.981-1.987-2.814c-.647-.926-1.448-2.06-2.391-3.4-.468-.674-.976-1.395-1.516-2.164q-.729-1.237-1.544-2.63c-1.09-1.861-2.295-3.924-3.607-6.164-1.176-2.366-2.448-4.926-3.81-7.657-1.337-2.759-2.552-5.833-3.953-9.009-1.351-3.2-2.549-6.695-3.921-10.281-1.251-3.639-2.57-7.437-3.857-11.388q-1.844-5.954-3.814-12.292c-2.57-8.448-5.279-17.282-8.3-26.239a223.186,223.186,0,0,0-10.795-26.423q-1.641-3.154-3.289-6.327c-1.122-2.084-2.391-3.963-3.578-5.968l-1.812-2.967c-.654-.978-1.387-1.931-2.077-2.9l-4.207-5.794L501.343,94.5c-.74-.858-1.455-1.753-2.213-2.581l-2.366-2.348c-1.591-1.536-3.1-3.2-4.747-4.629q-2.488-2.1-4.965-4.19a146.623,146.623,0,0,0-20.739-13.763c-7.024-3.844-13.958-7.3-20.589-10.569q-4.965-2.506-9.647-4.865c-3.1-1.64-6.08-3.317-8.936-4.911-2.813-1.753-5.558-3.274-8.071-5-2.491-1.784-4.9-3.332-7.067-5.036q-3.222-2.593-6.012-4.849l-4.854-4.61c-.726-.693-1.416-1.352-2.062-1.968-.6-.684-1.165-1.324-1.691-1.922-1.044-1.2-1.934-2.213-2.656-3.041Z" transform="translate(37.479 -17.681)" fill="#2e3238"/>
        <path id="Path_1697" data-name="Path 1697" d="M401.681,17.681l2.241,1.245c1.465.794,3.6,2.06,6.362,3.406,2.724,1.447,6.112,2.976,9.98,4.782,3.9,1.7,8.314,3.556,13.147,5.561,4.843,1.989,10.112,4.068,15.649,6.572a164.242,164.242,0,0,1,17.264,8.647A115.859,115.859,0,0,1,483.9,60.161a127.209,127.209,0,0,1,16.153,16.728l3.528,4.868,1.716,2.4,1.662,2.633c1.094,1.763,2.234,3.491,3.27,5.279q1.48,2.708,2.953,5.4a169.137,169.137,0,0,1,9.633,22.4c2.717,7.489,4.872,14.94,6.788,22,1.966,7.053,3.6,13.763,5.161,19.937,1.569,6.158,3.024,11.783,4.361,16.752,1.412,4.926,2.616,9.248,3.753,12.73,1.058,3.531,2.041,6.223,2.667,8.092s.972,2.86.972,2.86-.443-.923-1.28-2.652c-.8-1.753-2.141-4.23-3.5-7.614-1.458-3.326-3.085-7.452-4.857-12.255q-1.281-3.628-2.71-7.7-1.346-4.111-2.824-8.623c-1.905-6.005-3.975-12.51-6.159-19.391-2.191-6.845-4.647-13.944-7.41-21.09a187.122,187.122,0,0,0-9.658-21.074q-1.41-2.529-2.831-5.073c-.979-1.649-2.03-3.191-3.042-4.8l-1.53-2.4-1.734-2.357-3.406-4.619a121.113,121.113,0,0,0-15.1-15.986,130.351,130.351,0,0,0-16.539-12.31c-5.608-3.516-11.177-6.652-16.553-9.441-5.4-2.786-10.5-5.416-15.216-7.85q-3.539-1.876-6.766-3.593-3.2-1.825-6.048-3.452c-3.764-2.256-7.009-4.334-9.626-6.2-2.663-1.735-4.59-3.424-5.966-4.451Z" transform="translate(61.073 -17.681)" fill="#2e3238"/>
        <path id="Path_1698" data-name="Path 1698" d="M414.112,17.681s2.284.7,6.255,2.042c1.977.674,4.386,1.508,7.124,2.56,1.373.518,2.835,1.07,4.372,1.652q2.289.975,4.8,2.057c3.371,1.355,6.934,3.2,10.705,5.168,1.909.907,3.753,2.207,5.708,3.338a55.777,55.777,0,0,1,5.851,3.853q2.9,2.184,5.884,4.432c1.973,1.542,3.817,3.4,5.733,5.165l2.867,2.694c.926.953,1.791,2.008,2.691,3.013q2.734,3.127,5.48,6.266,2.338,3.329,4.665,6.649c.768,1.122,1.562,2.173,2.309,3.344l2.152,3.7c1.408,2.465,2.906,4.868,4.114,7.391q1.769,3.8,3.481,7.5c1.2,2.425,2.08,4.99,3.024,7.452.886,2.492,1.909,4.846,2.62,7.28,1.541,4.806,3,9.343,4.053,13.641.565,2.13,1.1,4.175,1.616,6.118.457,1.962.89,3.826,1.294,5.573.822,3.491,1.48,6.56,2.005,9.086,1.054,5.055,1.6,7.967,1.6,7.967s-1.044-2.679-2.781-7.421c-.854-2.37-1.895-5.248-3.092-8.549-1.158-3.32-2.531-7.01-4-11.032-1.423-4.062-3.221-8.27-4.961-12.8-.837-2.3-1.962-4.454-2.963-6.762-1.079-2.247-1.959-4.715-3.21-6.934q-1.758-3.412-3.574-6.931c-.568-1.214-1.315-2.207-1.966-3.326s-1.326-2.216-1.994-3.332l-2-3.36c-.722-1.107-1.555-2.179-2.331-3.274L476.9,65.341q-2.445-2.869-4.886-5.726c-.836-.963-1.641-1.98-2.5-2.9l-2.674-2.593c-1.809-1.677-3.489-3.534-5.294-5.122q-2.756-2.308-5.444-4.555c-1.741-1.588-3.675-2.719-5.437-4.1-1.812-1.272-3.507-2.71-5.308-3.77-3.56-2.219-6.859-4.518-10.048-6.321-3.16-1.879-6.055-3.635-8.661-5.1-2.591-1.52-4.851-2.845-6.713-3.936C416.217,19.011,414.112,17.681,414.112,17.681Z" transform="translate(93.076 -17.681)" fill="#2e3238"/>
        <path id="Path_1699" data-name="Path 1699" d="M427.334,17.681s1.19.4,3.206,1.251c1.008.432,2.241.932,3.617,1.594.69.331,1.433.644,2.2,1.045.761.435,1.541.944,2.37,1.453,1.658,1.018,3.463,2.133,5.337,3.424,1.851,1.315,3.682,2.912,5.6,4.543l2.906,2.538c.976.867,1.848,1.928,2.774,2.924l2.763,3.075,2.859,3.286c1.6,2.274,3.2,4.54,4.74,6.823.765,1.162,1.558,2.2,2.252,3.464s1.362,2.52,2.027,3.749c1.3,2.48,2.588,4.865,3.614,7.219,1,2.37,1.873,4.653,2.67,6.759.393,1.048.772,2.057,1.137,3.013.318.984.568,1.95.833,2.839.526,1.772.922,3.35,1.262,4.641.665,2.578.972,4.08.972,4.08s-.808-1.2-2.095-3.347c-.64-1.076-1.426-2.366-2.263-3.884-.815-1.536-1.848-3.17-2.956-4.951s-2.3-3.7-3.478-5.787c-1.233-2.029-2.71-3.933-4.061-6.079-.679-1.058-1.376-2.133-2.077-3.225s-1.6-2.127-2.384-3.231c-1.637-2.161-3.253-4.42-4.875-6.664l-2.459-2.866q-1.26-1.522-2.509-3.029c-.847-.978-1.616-2.066-2.481-2.98s-1.723-1.815-2.57-2.7c-1.7-1.741-3.238-3.663-4.825-5.226-1.623-1.49-3.12-3-4.511-4.408s-2.677-2.731-3.9-3.783c-1.208-1.073-2.227-2.084-3.078-2.9C428.267,18.7,427.334,17.681,427.334,17.681Z" transform="translate(127.115 -17.681)" fill="#2e3238"/>
        <path id="Path_1700" data-name="Path 1700" d="M437.186,17.681a8.228,8.228,0,0,1,1.24.279,18.247,18.247,0,0,1,2.978,1.171,15.557,15.557,0,0,1,3.735,2.529,36.478,36.478,0,0,1,3.789,3.905c.668.932,1.112,1.542,1.626,2.37.5.769.954,1.573,1.38,2.36a25.7,25.7,0,0,1,2.02,4.8,31.16,31.16,0,0,1,.951,3.859,13.678,13.678,0,0,1,.211,1.576,9.9,9.9,0,0,1-1.187-.567,20.987,20.987,0,0,1-2.731-1.778c-.518-.4-1.054-.858-1.6-1.361s-1.172-1.033-1.755-1.628-1.194-1.217-1.766-1.9c-.554-.619-1.2-1.484-1.623-2.026a34.931,34.931,0,0,1-3.006-4.242c-.851-1.49-1.712-2.964-2.38-4.316a30.527,30.527,0,0,1-1.444-3.522A15.247,15.247,0,0,1,437.186,17.681Z" transform="translate(152.478 -17.681)" fill="#2e3238"/>
      </g>
    </g>
  </g>
</svg>
